<svg transform="scale(1)" version="1.1" id="ZBLGA68zLM" xmlns="http://www.w3.org/2000/svg" xmlns:xlink="http://www.w3.org/1999/xlink" x="0px" y="0px" viewBox="0 0 500 500" xml:space="preserve" class="pbimage_pbimage__wrapper__image__0LEis false"><title>Finance Analysis</title><style type="text/css"> .st0{fill:#FFFFFF;} .st1{fill:#231F20;} .st2{fill:#D1D3D4;} .st3{fill:#68E1FD;}
 .st3{fill:#61654c;}
 .st2{fill:#D1D3D4;}
 .st1{fill:#231F20;}
 .st0{fill:#FFFFFF;}</style><g id="chart_paper"><path class="st0" d="M402.7,250.1c0,0,21,2.3,10.8,41.7l-49.9-5.9C363.6,285.8,386.5,245.4,402.7,250.1z" fill="#FFFFFF"></path><path class="st1" d="M413.5,292.5L413.5,292.5l-50-5.9c-0.2,0-0.4-0.2-0.5-0.4c-0.1-0.2-0.1-0.5,0-0.7c1-1.7,23.4-40.7,39.9-36.1
		c4.1,0.8,7.6,3.2,9.9,6.7c5.2,7.5,5.7,19.6,1.4,35.9C414.1,292.3,413.8,292.5,413.5,292.5z M364.7,285.3L413,291
		c4.9-19.4,2-29.3-1.4-34.1c-2-3.2-5.3-5.4-9-6.1h-0.1C388.4,246.7,368.2,279.3,364.7,285.3z" fill="#231F20"></path><path class="st0" d="M359.4,327c0,0,9.7,1.4,19-29.2s3.4-46.9,24.3-47.6l-65.9-8.6C336.8,241.5,322,321.4,359.4,327z" fill="#FFFFFF"></path><path class="st1" d="M359.6,327.7h-0.3c-6.7-1-12.7-4.7-16.5-10.3c-6.9-9.6-10.1-25.3-9.5-46.7c0.3-9.8,1.2-19.6,2.8-29.3
		c0.1-0.4,0.4-0.6,0.8-0.6l65.9,8.6c0.4,0.1,0.6,0.4,0.6,0.8c-0.1,0.3-0.3,0.6-0.6,0.6c-14,0.5-15.4,8.2-18.2,23.4
		c-1.3,8-3.2,15.9-5.5,23.7C370.5,326.2,361.4,327.7,359.6,327.7z M359.5,326.3c0.2,0,9.3,0.5,18.2-28.7c2.3-7.7,4.1-15.6,5.4-23.5
		c2.4-13.4,3.9-21.6,14-23.9l-59.8-7.9c-1,6.1-8.4,53.3,6.6,74.3C347.5,321.8,353.2,325.3,359.5,326.3z" fill="#231F20"></path><path class="st0" d="M365,119.1c0,0,16.7,2.8,12.9,27.5c-4.8,30.3-28.4,134.4-28.9,157.7s10.5,22.7,10.5,22.7l-153.2-15.9
		c0,0-7.2-5.9,8.5-65.8s30.1-111.2,38.4-115.2C261.6,126.1,365,119.1,365,119.1z" fill="#FFFFFF"></path><path class="st1" d="M359.4,327.6c-0.4,0-0.7,0-1.1-0.1l-152.1-15.8c-0.1,0-0.3-0.1-0.4-0.2c-0.8-0.6-7.1-7.8,8.3-66.5
		c18-68.5,30.7-111.8,38.8-115.6c8.4-4,107.8-10.8,112-11.1h0.2c0.2,0,17.4,3.2,13.4,28.3c-1.8,11.1-5.9,31.8-10.8,55.6
		c-8.3,40.9-17.8,87.3-18.1,102c-0.3,11.9,2.5,17.3,5,19.7c1,1.1,2.4,1.8,3.8,2.2l1.1,0.1c0.4,0,0.7,0.4,0.6,0.8
		c0,0.3-0.3,0.6-0.6,0.6L359.4,327.6z M206.6,310.4l147.9,15.3c-0.3-0.2-0.5-0.5-0.8-0.7c-3.9-3.8-5.7-10.8-5.4-20.8
		c0.4-14.8,9.8-61.2,18.1-102.2c4.9-23.9,9-44.5,10.8-55.6c3.6-23-10.9-26.4-12.2-26.7c-3.5,0.2-103.4,7.2-111.4,11
		c-8.4,4-24,61.3-38.1,114.7c-6.3,24.1-9.7,42.3-10.1,54.2C205.1,307.4,206.2,309.8,206.6,310.4z" fill="#231F20"></path><path class="st0" d="M241.3,115.9c0,0-17.3-0.8-21.3,20.9c-2.2,12.2-26,110.4-26,110.4l114.3,24.9c27.1,1.2,33.7-124.9,33.7-124.9
		s-0.1-28.2,23-28.2C365,119.1,255.8,112.9,241.3,115.9z" fill="#FFFFFF"></path><path class="st1" d="M308.7,272.8h-0.4l-114.4-24.9c-0.2,0-0.3-0.2-0.4-0.3c-0.1-0.2-0.1-0.4-0.1-0.5c0.2-1,23.8-98.3,26-110.4
		c3.9-21.2,20.5-21.5,21.9-21.5c14.7-2.9,119.3,2.9,123.8,3.2c0.4,0,0.7,0.3,0.7,0.7c0,0.4-0.3,0.7-0.7,0.7
		c-5.8,0-10.6,1.9-14.3,5.5c-7.9,7.9-8,21.8-8,22C342.4,152.4,335.8,272.8,308.7,272.8z M194.8,246.7l113.6,24.7
		c10.6,0.6,19.6-20.8,26.2-61.4c5-31,6.7-62.5,6.7-62.8c0-0.6,0-14.6,8.4-22.9c2.3-2.3,5.1-4,8.2-4.9c-24.4-1.3-104.3-5.3-116.4-2.8
		c-0.1,0-0.1,0-0.2,0c-0.7,0-16.8-0.5-20.6,20.3C218.6,148.5,196.9,237.9,194.8,246.7z" fill="#231F20"></path><path class="st0" d="M308.3,272.1c0,0-24.5-3.2-18.9-30.7l-109.2-8.7l9.4,30L308.3,272.1z" fill="#FFFFFF"></path><path class="st1" d="M308.3,272.8L308.3,272.8l-118.8-9.4c-0.3,0-0.5-0.2-0.6-0.5l-9.4-30c-0.1-0.2,0-0.5,0.1-0.6
		c0.1-0.2,0.4-0.3,0.6-0.3l109.2,8.7c0.2,0,0.4,0.1,0.5,0.3c0.1,0.2,0.2,0.4,0.1,0.6c-1.7,8.5-0.7,15.5,3.1,20.7
		c5.5,7.7,15.2,9.1,15.3,9.1c0.4,0.1,0.6,0.4,0.6,0.8C308.9,272.5,308.6,272.8,308.3,272.8L308.3,272.8z M190.1,262l111.7,8.8
		c-3.9-1.7-7.3-4.3-9.8-7.8c-3.9-5.4-5-12.5-3.5-21l-107.4-8.6L190.1,262z" fill="#231F20"></path><path class="st2" d="M326.9,302.1L326.9,302.1l-111.1-9.6c-0.4,0-0.7-0.4-0.6-0.8c0-0.4,0.4-0.7,0.8-0.6l0,0l111,9.6
		c0.4,0.1,0.6,0.4,0.6,0.8C327.5,301.8,327.2,302.1,326.9,302.1L326.9,302.1z" fill="#D1D3D4"></path><path class="st2" d="M319.6,287L319.6,287l-111.1-9.6c-0.4,0-0.7-0.4-0.6-0.7c0,0,0,0,0,0c0-0.4,0.3-0.7,0.7-0.6c0,0,0,0,0,0
		l111,9.6c0.4,0,0.7,0.4,0.6,0.8C320.3,286.7,320,287,319.6,287z" fill="#D1D3D4"></path><path class="st2" d="M242.4,222L242.4,222l-15-1.4c-0.2,0-0.4-0.1-0.5-0.3c-0.1-0.1-0.2-0.3-0.1-0.5l2.9-23.2
		c0-0.4,0.4-0.7,0.8-0.6l14.9,1.4c0.2,0,0.4,0.1,0.5,0.3c0.1,0.1,0.2,0.3,0.1,0.5l-2.9,23.2C243.1,221.7,242.8,222,242.4,222z
		 M228.3,219.2l13.5,1.3l2.7-21.8l-13.5-1.3L228.3,219.2z" fill="#D1D3D4"></path><path class="st2" d="M244.4,205.9L244.4,205.9l-15-1.4c-0.4,0-0.7-0.4-0.6-0.8c0,0,0,0,0,0l0.9-7.2c0-0.4,0.4-0.7,0.8-0.6l14.9,1.4
		c0.2,0,0.4,0.1,0.5,0.3c0.1,0.1,0.2,0.3,0.1,0.5l-0.9,7.2C245.1,205.6,244.8,205.9,244.4,205.9z M230.3,203.1l13.5,1.3l0.7-5.8
		l-13.5-1.3L230.3,203.1z" fill="#D1D3D4"></path><path class="st2" d="M264.7,224.1L264.7,224.1l-15-1.4c-0.4,0-0.7-0.4-0.6-0.8c0,0,0,0,0,0l5.2-41.8c0-0.4,0.4-0.6,0.7-0.6
		c0,0,0,0,0,0l14.9,1.5c0.2,0,0.4,0.1,0.5,0.2c0.1,0.1,0.2,0.3,0.1,0.5l-5.2,41.8C265.3,223.9,265,224.1,264.7,224.1z M250.6,221.3
		l13.5,1.3l5-40.4l-13.5-1.3L250.6,221.3z" fill="#D1D3D4"></path><path class="st2" d="M268.8,191.1L268.8,191.1l-15-1.4c-0.4,0-0.7-0.4-0.6-0.8c0,0,0,0,0,0l1.1-8.8c0-0.4,0.4-0.6,0.7-0.6
		c0,0,0,0,0,0l14.9,1.5c0.2,0,0.4,0.1,0.5,0.2c0.1,0.1,0.2,0.3,0.1,0.5l-1.1,8.8C269.4,190.9,269.1,191.1,268.8,191.1z M254.7,188.4
		l13.5,1.3l0.9-7.4l-13.5-1.3L254.7,188.4z" fill="#D1D3D4"></path><path class="st2" d="M286.9,226.3L286.9,226.3l-14.9-1.4c-0.2,0-0.4-0.1-0.5-0.3c-0.1-0.1-0.2-0.3-0.1-0.5l10.1-82.1
		c0-0.4,0.4-0.7,0.8-0.6l14.9,1.4c0.2,0,0.4,0.1,0.5,0.3c0.1,0.1,0.2,0.3,0.1,0.5l-10.2,82C287.6,226,287.3,226.3,286.9,226.3z
		 M272.8,223.5l13.5,1.3l10-80.7l-13.5-1.3L272.8,223.5z" fill="#D1D3D4"></path><path class="st2" d="M295.9,154.2L295.9,154.2l-15-1.4c-0.2,0-0.4-0.1-0.5-0.3c-0.1-0.1-0.2-0.3-0.1-0.5l1.2-10
		c0-0.4,0.4-0.7,0.8-0.6l14.9,1.4c0.2,0,0.4,0.1,0.5,0.3c0.1,0.1,0.2,0.3,0.1,0.5l-1.2,10C296.5,154,296.2,154.3,295.9,154.2z
		 M281.7,151.5l13.5,1.3l1.1-8.6l-13.5-1.3L281.7,151.5z" fill="#D1D3D4"></path><path class="st2" d="M309.1,228.4L309.1,228.4l-15-1.4c-0.2,0-0.4-0.1-0.5-0.3c-0.1-0.1-0.2-0.3-0.1-0.5l3.4-27.7
		c0-0.4,0.4-0.6,0.7-0.6c0,0,0,0,0,0l14.9,1.4c0.2,0,0.4,0.1,0.5,0.3c0.1,0.1,0.2,0.3,0.1,0.5l-3.4,27.7
		C309.8,228.2,309.5,228.4,309.1,228.4z M295,225.7l13.5,1.3l3.3-26.3l-13.5-1.3L295,225.7z" fill="#D1D3D4"></path><path class="st2" d="M311.4,210.5L311.4,210.5l-15-1.4c-0.2,0-0.4-0.1-0.5-0.3c-0.1-0.1-0.2-0.3-0.1-0.5l1.2-9.7
		c0-0.4,0.4-0.6,0.7-0.6c0,0,0,0,0,0l14.9,1.4c0.2,0,0.4,0.1,0.5,0.3c0.1,0.1,0.2,0.3,0.1,0.5l-1.2,9.7
		C312,210.2,311.7,210.5,311.4,210.5z M297.3,207.7l13.5,1.3l1-8.3l-13.5-1.3L297.3,207.7z" fill="#D1D3D4"></path><path class="st2" d="M317.7,229.3L317.7,229.3l-96.5-9.4c-0.4,0-0.7-0.4-0.6-0.8c0-0.4,0.4-0.7,0.7-0.6c0,0,0,0,0,0l96.4,9.4
		c0.4,0,0.7,0.4,0.6,0.8C318.3,229,318,229.3,317.7,229.3z" fill="#D1D3D4"></path><path class="st2" d="M332.5,157.8L332.5,157.8l-23.8-2.2c-0.4,0-0.7-0.3-0.7-0.7c0-0.4,0.3-0.7,0.7-0.7c0,0,0.1,0,0.1,0l23.8,2.2
		c0.4,0,0.7,0.4,0.6,0.8C333.2,157.5,332.9,157.8,332.5,157.8z" fill="#D1D3D4"></path><path class="st2" d="M332.1,163.7L332.1,163.7l-23.8-2.2c-0.4,0-0.7-0.3-0.7-0.7c0-0.4,0.3-0.7,0.7-0.7c0,0,0.1,0,0.1,0l23.8,2.2
		c0.4,0,0.7,0.4,0.6,0.7c0,0,0,0,0,0C332.8,163.4,332.5,163.7,332.1,163.7z" fill="#D1D3D4"></path><path class="st2" d="M331.7,169.5L331.7,169.5l-23.8-2.2c-0.4,0-0.7-0.2-0.8-0.6c0-0.4,0.2-0.7,0.6-0.8c0.1,0,0.1,0,0.2,0l23.8,2.2
		c0.4,0.1,0.6,0.4,0.6,0.8C332.3,169.3,332,169.5,331.7,169.5L331.7,169.5z" fill="#D1D3D4"></path><path class="st2" d="M325.5,174.9L325.5,174.9l-18-1.6c-0.4,0-0.7-0.4-0.6-0.8c0-0.4,0.4-0.7,0.8-0.6l18,1.6
		c0.4,0.1,0.6,0.4,0.6,0.8C326.1,174.6,325.8,174.9,325.5,174.9z" fill="#D1D3D4"></path><path class="st2" d="M268.3,144.9L268.3,144.9l-34.6-2.9c-0.2,0-0.4-0.1-0.5-0.3c-0.1-0.2-0.2-0.4-0.1-0.6l3-12.8
		c0.1-0.4,0.5-0.6,0.8-0.5s0.6,0.5,0.5,0.8l-2.8,12l33.8,2.9c0.4,0.1,0.6,0.4,0.6,0.8C268.9,144.6,268.6,144.9,268.3,144.9
		L268.3,144.9z" fill="#D1D3D4"></path><path class="st2" d="M236.3,140.9c-0.4,0-0.7-0.3-0.7-0.7c0-0.2,0.1-0.4,0.3-0.5c2.7-2.1,5.5-3.9,8.6-5.4c1-0.6,2.1-0.9,3.3-0.7
		c1.1,0.4,2.1,1.1,2.7,2.1c0.4,0.7,1,1.3,1.8,1.6c1,0.4,2.2-0.2,3.3-0.8c3.8-2,8.1-4.3,10.8-8c0.2-0.3,0.6-0.4,1-0.2
		c0.3,0.2,0.4,0.6,0.2,1c0,0,0,0.1-0.1,0.1c-2.9,3.9-7.3,6.3-11.3,8.4c-1.4,0.7-2.9,1.4-4.4,0.9c-1-0.5-1.8-1.2-2.4-2.1
		c-0.4-0.7-1.1-1.3-1.9-1.6c-0.8-0.1-1.7,0.1-2.4,0.6c-2.9,1.5-5.7,3.2-8.3,5.2C236.6,140.8,236.5,140.9,236.3,140.9z" fill="#D1D3D4"></path></g><g id="magnifying_glass"><path class="st0" d="M249.3,195.1l5.3-1.7l0,0L261,213c0.4,1.4-0.3,2.8-1.7,3.3v0l-0.3,0.1c-1.4,0.4-2.8-0.3-3.3-1.7v0L249.3,195.1
		L249.3,195.1L249.3,195.1z"></path><path class="st1" d="M258.2,217.1c-0.5,0-1-0.1-1.5-0.4c-0.8-0.4-1.4-1.1-1.6-1.9l-6.4-19.6c-0.1-0.2-0.1-0.4,0-0.5
		c0.1-0.2,0.2-0.3,0.4-0.4l5.3-1.7c0.4-0.1,0.8,0.1,0.9,0.4l6.4,19.6c0.6,1.7-0.4,3.6-2.1,4.2l0,0l-0.3,0.1
		C258.9,217.1,258.6,217.1,258.2,217.1z M259.4,216.2L259.4,216.2z M250.2,195.5l6.2,19c0.3,1,1.4,1.5,2.4,1.2c0,0,0,0,0,0l0.3-0.1
		c1-0.3,1.5-1.4,1.2-2.4l-6.2-18.9L250.2,195.5z"></path><rect class="st0" x="244.9" y="176.1" transform="matrix(0.9501 -0.312 0.312 0.9501 -45.66 87.0915)" width="8.9" height="20.2"></rect><path class="st1" d="M248.2,197.9c-0.3,0-0.6-0.2-0.7-0.5l-6.3-19.2c-0.1-0.2-0.1-0.4,0-0.5c0.1-0.2,0.2-0.3,0.4-0.4l8.5-2.8
		c0.4-0.1,0.8,0.1,0.9,0.4l6.3,19.2c0.1,0.2,0.1,0.4,0,0.5c-0.1,0.2-0.2,0.3-0.4,0.4l-8.5,2.8C248.4,197.9,248.3,197.9,248.2,197.9z
		 M242.8,178.5l5.9,17.9l7.1-2.4l-5.8-17.9L242.8,178.5z"></path><path class="st0" d="M255.6,209.6l2.5-0.8c1.7-0.5,3.4,0.4,4,2l9,27.4c0.5,1.7-0.4,3.4-2,4l-2.5,0.8c-1.7,0.5-3.4-0.4-4-2l-9-27.4
		C253,211.9,253.9,210.1,255.6,209.6z"></path><path class="st1" d="M265.6,243.8c-1.7,0-3.1-1.1-3.7-2.6l-9-27.4c-0.7-2,0.4-4.2,2.4-4.9c0,0,0,0,0,0l2.5-0.8
		c2-0.7,4.2,0.4,4.9,2.5l9,27.4c0.7,2-0.4,4.2-2.5,4.9c0,0,0,0,0,0l0,0l-2.5,0.8C266.4,243.7,266,243.8,265.6,243.8z M259.1,209.2
		c-0.3,0-0.5,0-0.8,0.1l-2.5,0.8c-0.6,0.2-1.1,0.6-1.4,1.2c-0.3,0.6-0.4,1.3-0.1,1.9l9,27.4c0.4,1.3,1.8,2,3.1,1.6l2.5-0.8
		c1.3-0.4,2-1.8,1.6-3.1l-9-27.4c-0.2-0.6-0.6-1.1-1.2-1.4C259.9,209.3,259.5,209.2,259.1,209.2z M269.1,242.1L269.1,242.1z"></path><circle class="st0" cx="244.6" cy="171.7" r="23.7"></circle><path class="st1" d="M244.6,196.1c-13.5,0-24.5-10.9-24.5-24.5c0-13.5,10.9-24.5,24.5-24.5c13.5,0,24.5,10.9,24.5,24.5
		c0,10.6-6.8,20-16.8,23.3C249.7,195.7,247.1,196.1,244.6,196.1z M244.6,148.7c-12.7,0-23,10.3-23,23c0,12.7,10.3,23,23,23
		c12.7,0,23-10.3,23-23c0-2.4-0.4-4.8-1.1-7.2C263.3,155.1,254.5,148.7,244.6,148.7L244.6,148.7z"></path><ellipse class="st0" transform="matrix(0.1602 -0.9871 0.9871 0.1602 35.8901 385.6438)" cx="244.6" cy="171.7" rx="19.2" ry="19.3"></ellipse><path class="st1" d="M244.6,191.7c-11,0-20-8.9-20.1-19.9c0-11,8.9-20,19.9-20.1c8.7,0,16.4,5.6,19.1,13.8l0,0
		c3.4,10.5-2.3,21.8-12.8,25.2C248.7,191.3,246.7,191.7,244.6,191.7z M244.6,153.2c-10.2,0-18.5,8.3-18.5,18.6
		c0,10.2,8.3,18.5,18.6,18.5c10.2,0,18.5-8.3,18.5-18.6c0-2-0.3-3.9-0.9-5.8C259.8,158.3,252.6,153.1,244.6,153.2L244.6,153.2z"></path></g><g id="Character"><path class="st0" d="M189.4,235.6c3.7-7.4,8.8-14,15-19.5c9.9-8.6,15.9-14.8,12.8-16.5s-13.4,5.6-13.4,5.6l7.2-30.6
		c0,0-16.6,13.3-21.5,23s-14.5,30-14.5,30L189.4,235.6z"></path><path class="st1" d="M189.4,236.3c-0.1,0-0.2,0-0.3-0.1l-14.5-8c-0.3-0.2-0.4-0.6-0.3-0.9c0.1-0.2,9.7-20.4,14.5-30
		s21-22.6,21.7-23.2c0.2-0.2,0.6-0.2,0.8,0c0.3,0.2,0.4,0.5,0.3,0.8l-6.8,28.8c3.2-2.1,9.9-6.2,12.7-4.6c0.7,0.3,1.1,1,1.2,1.7
		c0.3,2.6-3.7,7.2-13.8,16c-6.1,5.4-11.1,12-14.8,19.3c-0.1,0.2-0.2,0.3-0.4,0.4L189.4,236.3z M175.8,227.3l13.3,7.4
		c3.7-7.2,8.8-13.7,14.8-19.1c3.4-2.9,13.7-11.8,13.3-14.8c0-0.3-0.2-0.5-0.5-0.6c-2-1.1-8.9,2.9-12.7,5.6c-0.3,0.2-0.8,0.1-1-0.2
		c-0.1-0.2-0.2-0.4-0.1-0.6l6.7-28.5c-4.3,3.6-15.8,13.8-19.7,21.4C185.7,206.5,177.4,223.9,175.8,227.3L175.8,227.3z"></path><path class="st1" d="M188.3,156.9c-4.9,0-8.9-4-8.9-8.9c0-4.9,4-8.9,8.9-8.9c4.9,0,8.9,4,8.9,8.9c0,0,0,0,0,0
		C197.1,152.9,193.2,156.9,188.3,156.9z M188.3,140.6c-4.1,0-7.5,3.3-7.5,7.4s3.3,7.5,7.4,7.5s7.5-3.3,7.5-7.4c0,0,0,0,0,0
		C195.8,143.9,192.4,140.6,188.3,140.6z"></path><path class="st0" d="M129.7,183.3c-3.7-0.1-7.3-0.8-11.6-1.1c-3.9-0.3-9-1.8-9.1-5.8c-0.1-3.4,4-6.2,3.1-9.5
		c-0.3-0.9-0.8-1.7-1.4-2.4c-11.7-15.8-9-38,6.3-50.4c-1.1,0.4-2.3-0.7-2.4-1.9c0-1.2,0.5-2.3,1.3-3.2c2.7-3.4,6.9-5.3,11-6.7
		c13.2-4.3,27.8-3.9,41.1,0c10.3,3,22.6,11.2,21.3,23.6c-0.5,4.5-4,8.8-8.5,9c-2.3,13.3-9.3,22.4-18,32
		c-5.9,6.6-13.3,11.6-21.6,14.7C137.5,183,133.6,183.5,129.7,183.3z"></path><path class="st1" d="M131.3,184.1c-0.5,0-1.1,0-1.6,0l0,0c-2.2-0.1-4.3-0.4-6.6-0.6c-1.6-0.2-3.3-0.4-5-0.6c-6-0.5-9.7-2.9-9.8-6.5
		c0.1-1.7,0.7-3.4,1.8-4.8c0.9-1.6,1.8-3,1.4-4.5c-0.3-0.7-0.7-1.4-1.2-2l-0.1-0.2c-11.6-15.6-9.3-37.5,5.2-50.3l-0.1-0.1
		c-0.8-0.5-1.3-1.3-1.4-2.2c0-1.4,0.5-2.7,1.4-3.7c3.1-3.9,8-5.8,11.3-6.9c12.6-4.1,27.4-4.1,41.6,0c11.7,3.4,23,12.3,21.7,24.4
		c-0.5,4.4-3.8,9-8.6,9.6c-2.5,13.8-10,22.9-18.1,31.8c-6,6.7-13.5,11.8-21.9,14.9C138.2,183.5,134.8,184.1,131.3,184.1z
		 M129.8,182.6c3.8,0.2,7.6-0.3,11.2-1.6c8.2-3,15.5-8,21.3-14.5c9.7-10.6,15.7-19.2,17.8-31.6c0.1-0.3,0.3-0.6,0.7-0.6
		c4.3-0.2,7.4-4.5,7.8-8.4c1.2-11.2-9.5-19.6-20.8-22.9c-13.9-4.1-28.4-4.1-40.7-0.1c-3.2,1.1-7.8,2.9-10.7,6.5
		c-0.7,0.7-1.1,1.7-1.1,2.7c0.1,0.5,0.3,0.9,0.7,1.2c0.2,0.2,0.5,0.2,0.8,0.1c0.4-0.1,0.8,0.1,0.9,0.4c0.1,0.3,0,0.6-0.2,0.8
		c-15,12.1-17.7,33.9-6.2,49.4l0.1,0.2c0.6,0.7,1.1,1.6,1.4,2.5c0.6,2.1-0.5,3.9-1.5,5.6c-0.9,1.2-1.4,2.6-1.6,4
		c0.1,4.1,6.5,4.9,8.5,5.1c1.8,0.1,3.5,0.4,5.1,0.6C125.5,182.2,127.6,182.5,129.8,182.6L129.8,182.6z"></path><path class="st0" d="M184.4,154.4c0,0,9.5,15.6,7.3,18.7s-9.1,0.7-9.1,0.7"></path><path class="st1" d="M187.6,175.3c-1.8,0-3.5-0.3-5.2-0.9c-0.4-0.1-0.6-0.5-0.4-0.9s0.5-0.6,0.9-0.4c1.8,0.6,6.7,1.7,8.3-0.5
		c1.3-1.9-3.5-11.6-7.3-17.9c-0.2-0.3-0.1-0.8,0.3-1c0.3-0.2,0.7-0.1,0.9,0.2c1.6,2.7,9.6,16.2,7.2,19.5
		C191.2,174.9,189.4,175.3,187.6,175.3z"></path><path class="st0" d="M183,134.1c6.2,5.5,3.9,16.5,3.6,23.7c-0.5,10.1-1.2,20.2-2.1,30.3c-0.6,6.4-17.2,5.9-20.1,3.9l1.6,25.4
		l-34.4-14.7l2.2-20.9c0,0,11.3,0.5,18.3-12.3s7.2-41.2,7.2-41.2S177,128.8,183,134.1z"></path><path class="st1" d="M166.1,218.1c-0.1,0-0.2,0-0.3-0.1l-34.4-14.7c-0.3-0.1-0.5-0.4-0.4-0.7l2.2-20.9c0-0.4,0.4-0.6,0.7-0.6
		c0.4,0,11,0.3,17.6-12c6.8-12.5,7.1-40.6,7.1-40.9c0-0.2,0.1-0.4,0.2-0.5c0.1-0.1,0.3-0.2,0.5-0.2c0.7,0,17.9,0.6,24.1,6.1l0,0
		c5.4,4.8,4.7,13.4,4.1,20.3c-0.1,1.4-0.2,2.7-0.3,3.9c-0.5,10.1-1.2,20.3-2.1,30.3c-0.1,1.2-0.8,3-3.6,4.3
		c-4.6,2.1-12.9,1.9-16.4,0.7l1.6,24.3C166.8,217.7,166.5,218,166.1,218.1C166.1,218.1,166.1,218.1,166.1,218.1L166.1,218.1z
		 M132.4,202.2l32.9,14.1l-1.6-24.3c0-0.3,0.1-0.5,0.4-0.7c0.2-0.1,0.5-0.1,0.7,0c1.9,1.3,11.3,2,16.2-0.2c1.7-0.8,2.7-1.8,2.8-3.1
		c0.9-10,1.6-20.2,2.1-30.3c0.1-1.2,0.2-2.6,0.3-4c0.6-6.6,1.2-14.8-3.6-19.1l0,0c-5.1-4.5-19.2-5.5-22.5-5.7
		c-0.1,4.6-0.8,29-7.2,40.8c-6.1,11.3-15.7,12.5-18.3,12.7L132.4,202.2z"></path><path class="st0" d="M184.6,180.6c0,0-8,4.5-11.9-3.8"></path><path class="st1" d="M179.7,182.5c-0.9,0-1.7-0.1-2.5-0.4c-2.4-0.8-4.3-2.7-5.2-5c-0.2-0.4,0-0.8,0.3-0.9c0.4-0.2,0.8,0,0.9,0.3
		c0.8,2,2.4,3.5,4.4,4.3c3.2,1,6.5-0.8,6.6-0.8c0.3-0.2,0.8,0,0.9,0.3c0.1,0.3,0,0.7-0.3,0.9C183.3,182,181.5,182.5,179.7,182.5z"></path><path class="st1" d="M142.7,159.6c-0.4,0-0.7-0.3-0.7-0.7c0-0.1,0-0.1,0-0.2c1.4-4.9,2.4-5,2.8-5c0.8-0.1,34.1-4.2,51.6-6.3
		c0.4,0,0.7,0.2,0.8,0.6c0,0.4-0.2,0.7-0.6,0.8c-2,0.2-48.7,6-51.5,6.3c-0.7,1.2-1.3,2.6-1.6,4C143.3,159.4,143,159.6,142.7,159.6z"></path><path class="st0" d="M164.7,160.1c0.1-2.5-1.3-4.9-2.6-7.1c-0.9-1.7-2.1-3.3-3.5-4.7c-1.4-1.4-3.4-2.1-5.4-1.9
		c-1.7,0.4-3.2,1.5-4.1,3c-0.9,1.5-1.4,3.2-1.4,5c-0.6,7.7,2.9,15.2,9.2,19.6l-0.5-0.6"></path><path class="st1" d="M157,174.7c-0.1,0-0.3,0-0.4-0.1c-6.6-4.6-10.2-12.3-9.6-20.3c0.1-1.9,0.6-3.7,1.6-5.3c1-1.7,2.6-2.9,4.6-3.3
		c2.2-0.3,4.4,0.5,6,2c1.5,1.4,2.7,3.1,3.6,4.9c1.2,2.1,2.7,4.6,2.7,7.4c0,0.4-0.3,0.7-0.7,0.7c-0.4,0-0.7-0.3-0.7-0.7
		c0.1-2.4-1.3-4.8-2.5-6.7c-0.9-1.7-2-3.2-3.4-4.6c-1.3-1.3-3-1.9-4.8-1.7c-1.5,0.3-2.8,1.3-3.6,2.7c-0.8,1.4-1.3,3-1.4,4.7
		c-0.5,7,2.5,13.9,8,18.3c0.2,0,0.5,0.1,0.6,0.2l0.5,0.6c0.2,0.3,0.2,0.7-0.1,1C157.4,174.6,157.2,174.7,157,174.7L157,174.7z"></path><ellipse class="st1" transform="matrix(0.9999 -1.570732e-02 1.570732e-02 0.9999 -2.2766 2.8723)" cx="181.7" cy="146.4" rx="1.4" ry="3.6"></ellipse><path class="st3" d="M86.4,381c0,0-11.3-129,7.4-155.4s64.7-30.6,85.9-13.6s37.4,170.2,37.4,170.2S146.8,426.1,86.4,381z"></path><path class="st0" d="M241.3,252.6l0.9-7c0-0.3,0.5-21.9,2.4-23.6s26-19.2,27.7-16.8s-1.7,6.9-1.7,6.9s5.7-0.6,5.1,2.8s-4,6.8-4,6.8
		s3.5-2.6,4,1.1c0.3,2.2-0.6,4.3-2.3,5.7c0,0,5.1-2.3,4,2s-13.6,15-13.6,15l-1.5,9.2L241.3,252.6z"></path><path class="st1" d="M262.3,255.5L262.3,255.5l-21.1-2.2h-0.1c-0.6-0.1-0.6-0.1,0.2-6.5l0.2-1.2c0-0.1,0.4-22,2.6-24
		c1.5-1.3,23.7-17.7,27.8-17.2c0.4,0,0.7,0.2,0.9,0.5c1.4,2,0,4.9-0.9,6.6c1.4,0,2.8,0.4,3.8,1.3c0.6,0.6,0.8,1.5,0.6,2.4
		c-0.4,1.9-1.3,3.6-2.4,5.1c0.3,0,0.6,0,0.9,0.2c0.9,0.5,1.5,1.4,1.5,2.4c0.2,1.6-0.1,3.2-0.9,4.5c0.7-0.1,1.5,0.1,2.1,0.5
		c0.7,0.6,0.9,1.6,0.5,3c-1.1,4.2-12,13.8-13.6,15.2l-1.5,9C263,255.3,262.7,255.5,262.3,255.5z M242.1,252l19.7,2.1l1.4-8.6
		c0-0.2,0.1-0.3,0.2-0.4c3.4-3,12.5-11.4,13.3-14.7c0.2-0.8,0.2-1.3,0-1.5c-0.5-0.4-2.1,0-3,0.4c-0.3,0.2-0.8,0.1-1-0.3
		c-0.2-0.3-0.1-0.8,0.3-1c1.5-1.2,2.3-3.1,2-5c-0.1-0.5-0.2-1.1-0.7-1.3c-0.7-0.3-1.9,0.4-2.2,0.7c-0.3,0.2-0.7,0.2-0.9-0.1
		c-0.3-0.3-0.3-0.7,0-1c0,0,0,0,0,0c0,0,3.2-3.3,3.8-6.4c0.1-0.4,0-0.9-0.3-1.2c-0.9-0.9-3.3-0.9-4.1-0.8c-0.3,0-0.5-0.1-0.7-0.4
		c-0.1-0.2-0.1-0.5,0-0.8c0.9-1.1,2.8-4.5,1.7-6.1c-2.4-0.8-24.2,14.8-26.7,16.9c-1.4,1.4-2.1,19.5-2.1,23.1c0,0-0.1,0.6-0.2,1.4
		C242.6,248.3,242.2,250.8,242.1,252z"></path><path class="st3" d="M179.7,212.1c0,0,13.6,8.2,23.8,27.1s26.4,79.1,26.4,79.1l7.7-73l29.8,6.7c0,0,2.5,106.5-23.8,118.4
		s-93.7-62.1-93.7-62.1L179.7,212.1z"></path><path class="st0" d="M124.4,208.7l3.4-11.1l44.5,4.3l2.6,10.2C174.9,212.1,151.6,223.1,124.4,208.7z"></path><path class="st1" d="M153.6,216.8c-10.3,0-20.4-2.6-29.5-7.5c-0.3-0.2-0.4-0.5-0.3-0.8l3.4-11.1c0.1-0.3,0.4-0.5,0.7-0.5l44.5,4.3
		c0.3,0,0.5,0.2,0.6,0.5l2.6,10.2c0.1,0.3-0.1,0.7-0.4,0.8C175.1,212.8,166.4,216.8,153.6,216.8z M125.2,208.3
		c24.2,12.6,45.3,4.8,48.8,3.4l-2.3-9.1l-43.5-4.2L125.2,208.3z"></path><path class="st1" d="M217.1,366c-0.1,0-0.3,0-0.4-0.1c-0.4-0.3-45.4-29-61.3-103.9c-0.1-0.4,0.2-0.7,0.5-0.8
		c0.4-0.1,0.7,0.2,0.8,0.5c0,0,0,0,0,0c15.7,74.3,60.2,102.8,60.6,103c0.3,0.2,0.4,0.6,0.3,0.9c0,0,0,0,0,0.1
		C217.6,365.9,217.4,366,217.1,366z"></path></g><g id="Dollar_Symbol"><path class="st3" d="M246.1,181.9v2.7c0,0.3-0.3,0.6-0.6,0.6h-3.1c-0.3,0-0.6-0.2-0.6-0.6v-2.5c-1.2-0.1-2.4-0.3-3.6-0.5
		c-0.3-0.1-0.5-0.3-0.5-0.6v-2.8c0-0.3,0.2-0.5,0.5-0.5h0.1c1.2,0.1,4,0.3,5.4,0.3c2,0,2.6-0.7,2.6-2c0-0.8-0.4-1.3-1.9-2.2
		l-3.9-2.3c-2.6-1.6-3.4-3.3-3.4-5.4c0-2.6,1.2-4.7,4.8-5.3v-2.4c0-0.3,0.3-0.6,0.6-0.6h3.1c0.3,0,0.6,0.3,0.6,0.6v2.3
		c1.4,0.1,2.8,0.3,4.1,0.5c0.3,0.1,0.5,0.3,0.5,0.5v2.8c0,0.3-0.2,0.5-0.5,0.5h-0.1c-1.8-0.2-4.1-0.3-6-0.3c-1.6,0-2.2,0.5-2.2,1.5
		c0,0.7,0.4,1.2,1.9,2l3.6,2c2.9,1.6,3.9,3.4,3.9,5.8C251.4,178.5,250,181.1,246.1,181.9z"></path></g></svg>