<svg transform="scale(1)" version="1.1" id="oVp1WUWaOu" xmlns="http://www.w3.org/2000/svg" xmlns:xlink="http://www.w3.org/1999/xlink" x="0px" y="0px" viewBox="0 0 500 500" xml:space="preserve" class="pbimage_pbimage__wrapper__image__0LEis false"><title>Wallet 1</title><style type="text/css"> .st0{fill:#231F20;} .st1{fill:#FFFFFF;} .st2{fill:#68E1FD;}
 .st2{fill:#bdd834;}
 .st1{fill:#fefe1e;}
 .st0{fill:#231F20;}</style><g id="Coins"><path class="st0" d="M228.7,147.1c-7,8.2-4.3,29.4-4.3,29.4l7.1,7.2c10.9,9.3,27.3,8.1,36.7-2.9c9.3-10.9,8.1-27.3-2.9-36.7
		l-8.3-5.9C257.1,138.4,235.7,139,228.7,147.1z" fill="#231F20"></path><path class="st0" d="M248.5,190.9c-6.4,0-12.6-2.3-17.4-6.4l-7.2-7.3c-0.1-0.1-0.2-0.3-0.2-0.5c-0.1-0.9-2.7-21.7,4.4-30
		s28.1-9,29-9.1c0.2,0,0.4,0.1,0.5,0.1l8.3,5.9c11.3,9.6,12.7,26.5,3.1,37.8C263.8,187.5,256.4,190.9,248.5,190.9L248.5,190.9z
		 M225.2,176.2l6.9,7c10.7,8.9,26.6,7.5,35.5-3.2c8.8-10.5,7.5-26.1-2.8-35.1l-8-5.7c-2.5,0.1-21.3,1.1-27.5,8.5
		S225,173.6,225.2,176.2L225.2,176.2z" fill="#231F20"></path><circle class="st1" cx="243.5" cy="159.8" r="26" fill="#fefe1e"></circle><path class="st0" d="M243.4,186.5c-14.8,0-26.7-12-26.7-26.8c0-14.8,12-26.7,26.8-26.7c6.4,0,12.5,2.3,17.4,6.4l0,0
		c11.2,9.6,12.5,26.5,2.9,37.7c-4.6,5.4-11.2,8.7-18.3,9.3C244.8,186.5,244.1,186.5,243.4,186.5L243.4,186.5z M243.5,134.5
		c-13.9,0-25.2,11.3-25.2,25.2c0,13.9,11.3,25.2,25.2,25.2c13.9,0,25.2-11.3,25.2-25.2c0-7.4-3.2-14.4-8.8-19.1l0,0
		C255.3,136.6,249.5,134.5,243.5,134.5L243.5,134.5z" fill="#231F20"></path><path class="st0" d="M250.9,100.2l6.5,7.5c4.2,5.2,17.4,1.5,29.5-8.2s18.6-21.8,14.4-27l-6.5-7.5L250.9,100.2L250.9,100.2z" fill="#231F20"></path><path class="st0" d="M263.5,110.9c-3,0-5.4-0.9-6.8-2.7l-6.5-7.5c-0.3-0.3-0.3-0.8,0.1-1.1c0,0,0,0,0,0l43.9-35.2
		c0.3-0.3,0.8-0.2,1.1,0.1l6.5,7.5c2.2,2.8,1.9,7.3-1,12.7c-2.8,5.2-7.6,10.7-13.5,15.4s-12.4,8.3-18,9.8
		C267.5,110.6,265.5,110.9,263.5,110.9L263.5,110.9z M252,100.3l6,6.8c1.8,2.2,5.8,2.7,10.9,1.2c5.5-1.5,11.7-4.9,17.5-9.5
		S296.8,89,299.5,84c2.5-4.7,3-8.7,1.2-10.9l-6-6.9L252,100.3z" fill="#231F20"></path><ellipse class="st1" transform="matrix(0.7805 -0.6251 0.6251 0.7805 8.2085 188.6811)" cx="272.8" cy="82.7" rx="28.1" ry="12.1" fill="#fefe1e"></ellipse><path class="st0" d="M257,103.3c-3,0-5.3-0.9-6.7-2.6c-2.2-2.8-1.9-7.2,1-12.6c2.8-5.2,7.6-10.7,13.5-15.4s12.3-8.2,18-9.8
		c5.9-1.6,10.3-1,12.5,1.8l0,0c2.2,2.8,1.9,7.2-1,12.6c-2.8,5.2-7.6,10.7-13.5,15.4s-12.3,8.2-18,9.8C260.9,103,259,103.3,257,103.3
		z M288.6,63.4c-1.8,0-3.6,0.3-5.4,0.8c-5.5,1.5-11.7,4.9-17.5,9.6s-10.5,10-13.1,15c-2.5,4.8-3,8.8-1.2,11s5.8,2.7,11,1.2
		c5.5-1.5,11.7-4.9,17.5-9.6s10.5-10,13.1-15c2.5-4.8,3-8.8,1.2-11l0,0C293.2,64.1,291.3,63.4,288.6,63.4L288.6,63.4z" fill="#231F20"></path><path class="st1" d="M187.7,90.8l7.1-7c4.6-4.8,17.4-0.1,28.8,10.5s16.8,23.2,12.2,28.1l-7.1,7L187.7,90.8L187.7,90.8z" fill="#fefe1e"></path><path class="st0" d="M228.7,130.1c-0.2,0-0.4-0.1-0.5-0.2l-41-38.6c-0.3-0.3-0.3-0.8,0-1.1c0,0,0,0,0,0l7.1-7
		c2.4-2.6,6.9-2.8,12.6-0.7c5.5,2,11.6,6,17.2,11.2c11.8,11.1,17.2,23.9,12.2,29.1l-7.1,7C229.1,130,228.9,130.1,228.7,130.1
		L228.7,130.1z M188.8,90.8l39.9,37.6l6.6-6.4c4.2-4.4-1.4-16.8-12.2-27c-5.4-5.1-11.3-9-16.6-10.9c-5.1-1.8-9.1-1.7-11,0.4
		L188.8,90.8z" fill="#231F20"></path><ellipse class="st0" transform="matrix(0.6856 -0.728 0.728 0.6856 -14.6821 186.1898)" cx="208.2" cy="110.1" rx="12.1" ry="28.1" fill="#231F20"></ellipse><path class="st0" d="M223.4,132.1c-2.4-0.1-4.7-0.5-6.9-1.4c-5.5-2-11.6-6-17.2-11.2s-9.9-11.1-12.2-16.5c-2.4-5.6-2.4-10.2,0-12.7
		s7-2.9,12.7-0.8c5.5,2,11.6,6,17.2,11.2s9.9,11.1,12.2,16.5c2.4,5.6,2.4,10.2,0,12.7l0,0C227.7,131.5,225.6,132.3,223.4,132.1
		L223.4,132.1z M193,89.7c-1.7-0.1-3.4,0.5-4.7,1.6c-1.9,2.1-1.8,6.1,0.3,11c2.3,5.2,6.5,10.9,11.9,16s11.3,9,16.6,10.9
		c5,1.8,9,1.7,11-0.4l0,0c1.9-2.1,1.8-6.1-0.3-11c-2.3-5.2-6.5-10.9-11.9-16s-11.3-9-16.6-10.9C197.3,90.2,195.2,89.8,193,89.7z" fill="#231F20"></path></g><g id="Coin_Bag"><path class="st2" d="M191.3,174.9c-2.9-3.8-5.4-9.3-0.7-12c3.3-1.9,8.2-0.9,11.9,0.6s7,3.7,11.2,4.1c11.6,1.2,20.7-11,32-8.6
		c4.2,0.9,7.2,3.7,11.2,5c7.4,2.5,15.8-0.6,23.4-2.8s18-2.9,22.2,2.1s-1,11.1-4.9,16.1c-4.9,6.3-7.9,13.9-8.5,21.9
		c-0.1,2.2-0.2,4.7-2,6.5c-2,2-5.6,2.6-8.9,3.2c-20.5,3.3-43.6,5.6-61.1-5.1C205.2,198.7,198.6,184.5,191.3,174.9L191.3,174.9z"></path><path class="st2" d="M385.9,367.8c0,55.7-60.9,70.2-135.9,70.2s-135.9-14.5-135.9-70.2S174.9,203.4,250,203.4
		S385.9,312.1,385.9,367.8z"></path><path class="st1" d="M262.4,220c0,0,13.6,30.8,23.6,74.1l29.8-11.5c0,0-21.9-32.3-34.7-48.6S262.4,220,262.4,220L262.4,220z"></path><path class="st0" d="M286,294.9c-0.1,0-0.2,0-0.4-0.1c-0.2-0.1-0.3-0.3-0.4-0.5c-5.8-25.3-13.7-50-23.6-74c-0.1-0.2-0.1-0.4,0-0.6
		c0.1-0.2,0.2-0.3,0.4-0.4c0.7-0.2,6.9-1.9,19.6,14.3s34.5,48.3,34.7,48.6c0.1,0.2,0.2,0.4,0.1,0.6c-0.1,0.2-0.2,0.4-0.4,0.5
		l-29.8,11.5C286.2,294.9,286.1,294.9,286,294.9L286,294.9z M263.5,220.6c9.6,23.5,17.3,47.8,23.1,72.5l28.1-10.8
		c-3.4-5-22.6-33-34.1-47.8C271.1,222.4,265.5,220.8,263.5,220.6L263.5,220.6z"></path><path class="st1" d="M268.4,217.7c0,0,37.3,17.9,50.9,34.1L297,267.9c0,0-19.2-38.2-34.6-48L268.4,217.7L268.4,217.7z"></path><path class="st0" d="M297,268.7c-0.1,0-0.1,0-0.2,0c-0.2-0.1-0.4-0.2-0.5-0.4c-0.2-0.4-19.3-38.1-34.4-47.7
		c-0.2-0.2-0.4-0.4-0.3-0.7c0-0.3,0.2-0.5,0.5-0.6l6-2.2c0.2-0.1,0.4-0.1,0.6,0c1.5,0.7,37.6,18.2,51.1,34.3
		c0.1,0.2,0.2,0.4,0.2,0.6c0,0.2-0.1,0.4-0.3,0.5l-22.3,16.1C297.3,268.6,297.2,268.6,297,268.7L297,268.7z M264,220.2
		c14.1,10.1,30.5,41.2,33.3,46.6l20.9-15.1c-13.1-15-46.4-31.5-49.8-33.2L264,220.2L264,220.2z"></path><path class="st1" d="M297.4,220.8c-9.4,4.3-37.7,1.8-43.7,1.8h-33.5c-4.9,0-27.3,2.1-20.5-5.9c0.8-0.9,1.9-1.6,2.6-2.5
		c1.7-2.2,0.1-4.9-1.2-7.3c-5.5-10.4,11-8.3,19.7-8.3h56.2c7.1,0,22.5-2.7,20.8,5.6c-0.4,1.8-1.7,3.5-1.5,5.3
		c0.3,2.6,3.5,4.6,4.1,7.1C300.7,218.4,299.6,219.8,297.4,220.8L297.4,220.8z"></path><path class="st0" d="M276.1,224.1c-6.1,0-12.2-0.3-16.7-0.5c-2.6-0.1-4.6-0.2-5.7-0.2h-33.5c-0.7,0-1.6,0-2.8,0.1
		c-8.9,0.4-17.8,0.4-19.4-3c-0.6-1.2-0.2-2.6,1.2-4.3c0.4-0.4,0.8-0.9,1.3-1.2c0.5-0.4,0.9-0.8,1.3-1.2c1.3-1.8,0.1-4-1.1-6.2
		l-0.2-0.3c-1.4-2.6-1.6-4.7-0.6-6.2c2.3-3.7,10.1-3.5,17.1-3.3c1.4,0,2.7,0.1,3.8,0.1h56.2c1.3,0,2.9-0.1,4.5-0.2
		c5.9-0.3,13.4-0.8,16,2.4c1,1.2,1.3,2.8,0.9,4.3c-0.2,0.8-0.4,1.5-0.8,2.2c-0.5,0.9-0.7,1.9-0.7,2.9c0.3,1.3,1,2.4,1.9,3.4
		c1,1,1.8,2.3,2.2,3.7c0.3,1.5,0,3.6-3.3,5.1C293.2,223.6,284.6,224.1,276.1,224.1L276.1,224.1z M220.1,221.9h33.6
		c1.2,0,3.2,0.1,5.8,0.2c10.6,0.5,30.2,1.4,37.6-2l0.3,0.7l-0.3-0.7c2.7-1.2,2.7-2.5,2.5-3.4c-0.4-1.1-1-2.2-1.9-3.1
		c-1.1-1.1-1.9-2.6-2.2-4.1c0-1.3,0.2-2.5,0.8-3.6c0.3-0.6,0.5-1.2,0.7-1.9c0.3-1,0.1-2.2-0.6-3.1c-2.2-2.6-9.5-2.1-14.8-1.8
		c-1.7,0.1-3.3,0.2-4.6,0.2h-56.2c-1.2,0-2.5,0-3.9-0.1c-5.9-0.2-14-0.4-15.8,2.6c-0.7,1.1-0.5,2.7,0.6,4.8l0.2,0.3
		c1.3,2.4,2.8,5.3,0.9,7.8c-0.4,0.5-0.9,1-1.5,1.5c-0.4,0.3-0.8,0.6-1.1,1c-0.7,0.8-1.4,1.9-1,2.6c1.4,2.8,13,2.3,18,2.1
		C218.4,221.8,219.4,221.8,220.1,221.9L220.1,221.9z"></path><path class="st0" d="M242.5,376v-8.2c-3-0.8-5.9-1.4-8.6-2.4c-5.4-1.7-10.1-5.3-13.3-10c-2.6-4.1-4-8.9-3.8-13.8h15.9
		c0.7,5.9,3.6,10.2,9.8,11.8v-21.6c-3.2-0.9-6.4-1.8-9.5-2.8c-3.5-1-6.7-2.8-9.3-5.3c-2.7-2.7-4.5-6.2-5.2-10c-1-4.6-0.6-9.4,1-13.9
		c2.4-6.5,7.5-11.6,14-13.9c2.6-0.9,5.3-1.5,8.1-2.1c0.3-0.1,0.6-0.1,1-0.2v-10.9h14.9v1c0,3.1,0,6.2,0,9.3c0,0.8,0.2,1,1,1.2
		c5.1,1,9.9,3.2,13.9,6.5c4.2,3.5,7.1,8.4,7.9,13.9c0.3,1.5,0.4,3,0.6,4.5h-16.3c-0.1-4.5-2.8-8.6-7-10.3v20.2
		c0.5,0.1,1.1,0.3,1.8,0.4c4.4,0.9,8.6,2.3,12.7,4.1c6.5,3.1,10.1,8.3,11,15.4c0.9,6.2-0.6,12.5-4.2,17.6c-3,4.2-7.2,7.3-12,8.9
		c-3,1-6.1,1.7-9.3,2.6v7.9H242.5z M257.5,335v18.8c2.4-0.4,4.7-1.4,6.6-2.9c3.5-2.8,4.7-9.9-0.4-13
		C261.7,336.7,259.6,335.8,257.5,335L257.5,335z M242.5,315.7v-18.2c-2,0.9-3.9,1.8-5.7,2.9c-4.1,2.8-4.8,10.4,0.5,13.1
		C239,314.4,240.7,314.9,242.5,315.7L242.5,315.7z"></path><path class="st0" d="M202.2,215c-0.4,0-0.7-0.4-0.7-0.8c0-0.3,0.2-0.6,0.5-0.7c0.4-0.1,9.2-2.3,25.6-1.9c0.4,0,0.7,0.4,0.7,0.8
		c0,0.3-0.3,0.6-0.7,0.7c-16.2-0.4-25.1,1.8-25.2,1.9C202.4,215,202.3,215,202.2,215L202.2,215z"></path><path class="st0" d="M295.1,208.3H295c-0.2,0-24.2-3.6-37.9-1.9c-0.4,0-0.8-0.3-0.8-0.7c0-0.4,0.2-0.7,0.6-0.7
		c13.9-1.7,38,1.9,38.3,1.9c0.4,0.1,0.7,0.5,0.6,0.9C295.8,208,295.5,208.3,295.1,208.3L295.1,208.3z"></path><path class="st0" d="M279.9,251.6c-0.3,0-0.6-0.2-0.7-0.5c-2.3-8.2-9.9-23.2-9.9-23.4c-0.2-0.4,0-0.8,0.3-1c0.4-0.2,0.8,0,1,0.3
		l0,0c0.3,0.6,7.7,15.3,10,23.6c0.1,0.4-0.1,0.8-0.5,0.9c0,0,0,0,0,0L279.9,251.6L279.9,251.6z"></path><path class="st0" d="M303,257c-0.3,0-0.5-0.1-0.6-0.4c-0.1-0.1-7.1-12.4-13.3-18.4c-0.3-0.3-0.3-0.7,0-1c0.3-0.3,0.8-0.3,1.1,0
		c6.3,6.1,13.3,18.3,13.6,18.8c0.2,0.4,0.1,0.8-0.3,1C303.3,257,303.1,257.1,303,257L303,257z"></path></g></svg>