<svg transform="scale(1)" id="qJsGPh613O" data-name="0780_Profile 1" xmlns="http://www.w3.org/2000/svg" viewBox="0 0 500 500" class="pbimage_pbimage__wrapper__image__0LEis false"><title>Profile 1</title><defs><style> .cls-1{fill:#68e1fd;} .cls-1, .cls-2, .cls-3{stroke-width:0px;} .cls-2{fill:#fff;} .cls-3{fill:#231f20;}
 .cls-3{fill:#231F20;}
 .cls-2{fill:#FFFFFF;}
 .cls-1{fill:#68E1FD;}</style></defs><g id="Phone"><g><g><rect class="cls-3" x="151.44" y="72.22" width="213.91" height="344.73" rx="7.87" ry="7.87" transform="translate(516.78 489.16) rotate(180)"></rect><path class="cls-3" d="M357.48,417.69h-198.18c-4.75,0-8.62-3.87-8.62-8.62V80.08c0-4.75,3.87-8.62,8.62-8.62h198.18c4.75,0,8.62,3.87,8.62,8.62v329c0,4.75-3.87,8.62-8.62,8.62ZM159.3,72.97c-3.92,0-7.12,3.19-7.12,7.12v329c0,3.92,3.19,7.12,7.12,7.12h198.18c3.92,0,7.12-3.19,7.12-7.12V80.08c0-3.92-3.19-7.12-7.12-7.12h-198.18Z"></path></g><g><rect class="cls-2" x="134.65" y="72.22" width="213.91" height="344.73" rx="7.87" ry="7.87" transform="translate(483.22 489.16) rotate(180)"></rect><path class="cls-3" d="M340.7,417.69h-198.18c-4.75,0-8.62-3.87-8.62-8.62V80.08c0-4.75,3.87-8.62,8.62-8.62h198.18c4.75,0,8.62,3.87,8.62,8.62v329c0,4.75-3.87,8.62-8.62,8.62ZM142.52,72.97c-3.92,0-7.12,3.19-7.12,7.12v329c0,3.92,3.19,7.12,7.12,7.12h198.18c3.92,0,7.12-3.19,7.12-7.12V80.08c0-3.92-3.19-7.12-7.12-7.12h-198.18Z"></path></g><g><rect class="cls-2" x="134.65" y="72.22" width="213.91" height="344.73" rx="7.87" ry="7.87" transform="translate(483.22 489.16) rotate(180)"></rect><path class="cls-3" d="M340.7,417.69h-198.18c-4.75,0-8.62-3.87-8.62-8.62V80.08c0-4.75,3.87-8.62,8.62-8.62h198.18c4.75,0,8.62,3.87,8.62,8.62v329c0,4.75-3.87,8.62-8.62,8.62ZM142.52,72.97c-3.92,0-7.12,3.19-7.12,7.12v329c0,3.92,3.19,7.12,7.12,7.12h198.18c3.92,0,7.12-3.19,7.12-7.12V80.08c0-3.92-3.19-7.12-7.12-7.12h-198.18Z"></path></g><g><rect class="cls-1" x="85.94" y="153.61" width="311.33" height="193.29" rx="5.8" ry="5.8" transform="translate(491.86 8.64) rotate(90)"></rect><path class="cls-3" d="M332.45,406.66h-181.69c-3.61,0-6.55-2.94-6.55-6.55V100.39c0-3.61,2.94-6.55,6.55-6.55h181.69c3.61,0,6.55,2.94,6.55,6.55v299.73c0,3.61-2.94,6.55-6.55,6.55ZM150.76,95.34c-2.78,0-5.05,2.26-5.05,5.05v299.73c0,2.78,2.27,5.05,5.05,5.05h181.69c2.78,0,5.05-2.27,5.05-5.05V100.39c0-2.78-2.27-5.05-5.05-5.05h-181.69Z"></path></g><g><g><rect class="cls-2" x="267.67" y="81.48" width="4.55" height="4" rx="1.7" ry="1.7" transform="translate(539.89 166.95) rotate(180)"></rect><path class="cls-3" d="M270.52,86.23h-1.15c-1.35,0-2.45-1.1-2.45-2.45v-.59c0-1.35,1.1-2.45,2.45-2.45h1.15c1.35,0,2.45,1.1,2.45,2.45v.59c0,1.35-1.1,2.45-2.45,2.45ZM269.37,82.23c-.53,0-.95.43-.95.95v.59c0,.53.43.95.95.95h1.15c.53,0,.95-.43.95-.95v-.59c0-.53-.43-.95-.95-.95h-1.15Z"></path></g><g><rect class="cls-3" x="210.99" y="81.48" width="52.37" height="4" rx="2" ry="2" transform="translate(474.35 166.95) rotate(180)"></rect><path class="cls-3" d="M261.36,86.23h-48.37c-1.52,0-2.75-1.23-2.75-2.75s1.23-2.75,2.75-2.75h48.37c1.52,0,2.75,1.23,2.75,2.75s-1.23,2.75-2.75,2.75ZM212.99,82.23c-.69,0-1.25.56-1.25,1.25s.56,1.25,1.25,1.25h48.37c.69,0,1.25-.56,1.25-1.25s-.56-1.25-1.25-1.25h-48.37Z"></path></g></g></g></g><g id="Screen"><g><rect class="cls-2" x="178.81" y="60.74" width="125.6" height="193.29" rx="3.68" ry="3.68" transform="translate(398.99 -84.22) rotate(90)"></rect><path class="cls-3" d="M334.57,220.94h-185.92c-2.44,0-4.43-1.99-4.43-4.43v-118.23c0-2.44,1.99-4.43,4.43-4.43h185.92c2.44,0,4.43,1.99,4.43,4.43v118.23c0,2.44-1.99,4.43-4.43,4.43ZM148.65,95.34c-1.62,0-2.93,1.32-2.93,2.93v118.23c0,1.62,1.32,2.93,2.93,2.93h185.92c1.62,0,2.93-1.32,2.93-2.93v-118.23c0-1.62-1.32-2.93-2.93-2.93h-185.92Z"></path></g><g><g><path class="cls-2" d="M302.12,198.91c0,10.99-2.99,21.29-8.21,30.11-1.42,2.4-3.01,4.7-4.76,6.87-10.84,13.55-27.53,22.22-46.23,22.22-6.49,0-12.73-1.04-18.57-2.97-6.04-1.99-11.64-4.93-16.64-8.64-5.41-4-10.11-8.9-13.88-14.48-1.87-2.77-3.51-5.7-4.89-8.77-3.36-7.42-5.23-15.66-5.23-24.34,0-24.64,15.05-45.77,36.47-54.68,7-2.92,14.68-4.53,22.74-4.53,8.86,0,17.26,1.95,24.8,5.44,20.31,9.38,34.4,29.93,34.4,53.77Z"></path><path class="cls-3" d="M242.92,258.87c-6.44,0-12.77-1.01-18.8-3.01-6.04-1.99-11.71-4.93-16.85-8.75-5.5-4.07-10.23-9-14.05-14.66-1.91-2.82-3.57-5.81-4.95-8.88-3.51-7.76-5.3-16.05-5.3-24.65,0-24.31,14.5-46.04,36.93-55.37,7.3-3.04,15.04-4.59,23.03-4.59,8.77,0,17.22,1.85,25.12,5.51,21.16,9.77,34.83,31.15,34.83,54.45,0,10.76-2.88,21.3-8.31,30.49-1.44,2.44-3.07,4.78-4.82,6.96-11.44,14.3-28.5,22.5-46.81,22.5ZM242.92,140.46c-7.78,0-15.34,1.5-22.45,4.47-21.88,9.1-36.01,30.29-36.01,53.99,0,8.38,1.74,16.46,5.16,24.03,1.35,3,2.97,5.91,4.83,8.66,3.73,5.52,8.34,10.33,13.71,14.3,5.02,3.72,10.54,6.59,16.43,8.53,5.89,1.95,12.06,2.93,18.33,2.93,17.85,0,34.49-8,45.64-21.94,1.71-2.12,3.29-4.4,4.7-6.78,5.3-8.96,8.11-19.24,8.11-29.73,0-22.72-13.33-43.56-33.96-53.09-7.7-3.56-15.94-5.37-24.49-5.37Z"></path></g><g><path class="cls-1" d="M289.15,235.89c-10.84,13.55-27.53,22.22-46.23,22.22-6.49,0-12.73-1.04-18.57-2.97-6.04-1.99-11.64-4.93-16.64-8.64-5.41-4-10.11-8.9-13.88-14.48-1.87-2.77-3.51-5.7-4.89-8.77.12-.29.26-.53.42-.73,5.67-7.04,28.86-11.6,28.86-11.6h.01c1.46.29,5.53.5,10.67.65.26.01.53.02.81.03,7.07.2,15.92.29,22.78.34h.36c6.11.04,10.54.04,10.54.04,0,0,.24.05.67.14,2.4.51,10.58,2.42,12.98,5.12,1.63,1.83,7.72,9.11,12.11,18.65Z"></path><path class="cls-1" d="M224.35,255.14c-6.04-1.99-11.64-4.93-16.64-8.64l8.36-8.16,8.28,16.8Z"></path><g><path class="cls-3" d="M283.07,203.53c0-1.38-.11-2.78-.62-4.05-1.71-4.24-7.4-6.16-8.33-10.64-.78-3.77.63-7.08-.35-10.72-.94-3.46-1.96-5.12-1.58-9.29.66-7.37-.6-14.85-3.5-21.65-2.73-6.41-6.59-9.36-11.27-14.21-1.04-1.07-2.39-1.85-3.88-2.43-12.39-4.87-25.96-1.01-32.2,11.23-3.47,6.81-5,14.55-9.02,21.05-2.83,4.57-6.93,8.6-8.01,13.88-.95,4.66.77,9.09-.31,13.8-.35,1.56-.89,3.11-1.79,4.44-.92,1.39-2.19,2.51-3.44,3.63-2.83,2.55,83.5,11.85,83.5,11.85,0,0,.8-4.56.8-6.88Z"></path><path class="cls-3" d="M282.28,211.16s-.05,0-.08,0c-.21-.02-20.91-2.26-41.46-4.8-42.03-5.21-42.46-6.52-42.74-7.39-.11-.34,0-.71.27-.96l.2-.18c1.18-1.06,2.29-2.07,3.11-3.31.74-1.11,1.29-2.48,1.68-4.2.53-2.31.36-4.52.18-6.87-.17-2.23-.35-4.54.13-6.91.79-3.87,3.12-7.08,5.39-10.19.93-1.28,1.89-2.6,2.72-3.93,2.23-3.6,3.72-7.69,5.16-11.65,1.13-3.11,2.3-6.33,3.84-9.34,6.15-12.07,19.78-16.83,33.14-11.59,1.77.7,3.12,1.55,4.15,2.61.9.94,1.77,1.8,2.61,2.63,3.51,3.49,6.55,6.5,8.81,11.81,2.99,7,4.22,14.61,3.56,22.01-.28,3.07.22,4.65.91,6.85.21.67.43,1.38.65,2.18.54,2.02.4,3.93.26,5.78-.13,1.69-.25,3.28.1,4.98.45,2.16,2.19,3.71,4.03,5.35,1.67,1.49,3.4,3.04,4.26,5.16.6,1.48.68,3.09.68,4.33,0,2.36-.77,6.82-.81,7.01-.06.36-.38.62-.74.62ZM199.87,198.57c6.01,2.24,51.15,7.7,81.78,11.01.22-1.35.67-4.36.67-6.06,0-1.11-.06-2.53-.57-3.77-.73-1.8-2.25-3.16-3.87-4.6-1.94-1.73-3.95-3.52-4.5-6.17-.4-1.91-.26-3.69-.13-5.4.14-1.8.27-3.5-.21-5.27-.21-.78-.43-1.47-.63-2.12-.71-2.27-1.28-4.07-.97-7.43.64-7.15-.55-14.51-3.44-21.29-2.15-5.04-4.95-7.81-8.49-11.33-.85-.84-1.72-1.71-2.63-2.65-.87-.9-2.06-1.64-3.62-2.26-12.61-4.95-25.46-.48-31.25,10.87-1.49,2.93-2.65,6.1-3.76,9.18-1.46,4.03-2.98,8.2-5.29,11.92-.86,1.38-1.83,2.72-2.78,4.02-2.27,3.12-4.41,6.06-5.13,9.61-.44,2.17-.28,4.27-.11,6.5.18,2.36.37,4.79-.21,7.32-.43,1.9-1.05,3.43-1.9,4.69-.82,1.24-1.89,2.26-2.96,3.23Z"></path></g><g><path class="cls-2" d="M252.65,207.49s3.14,44.64-12.51,41.65c-20.79-4.43-11.34-35.79-11.34-35.79l.34-5.86.79-13.64.75-12.74,21.86-.24.84,10.41.26,3.37-.99,12.84h0Z"></path><path class="cls-3" d="M241.6,250.04c-.52,0-1.06-.05-1.61-.16-4.88-1.04-8.55-3.6-10.92-7.6-6.24-10.55-1.46-27.53-1.02-29.05l1.87-32.15c.02-.39.35-.7.74-.71l21.85-.24h0c.39,0,.72.3.75.69l1.1,13.78s0,.08,0,.11l-.98,12.73c.1,1.36,2.18,32.63-6.88,40.67-1.44,1.28-3.09,1.92-4.92,1.92ZM231.38,181.86l-1.83,31.54c0,.06-.01.12-.03.17-.05.17-5.22,17.69.85,27.95,2.15,3.63,5.49,5.95,9.93,6.89,2.01.38,3.72-.08,5.23-1.42,8.27-7.34,6.51-37.33,6.39-39.34-.01-.07-.02-.14-.01-.21l.98-12.78-.25-3.31-.79-9.71-20.46.23Z"></path></g><g><path class="cls-3" d="M229.93,193.86s3.23,10.85,10.39,12.19c7.17,1.34,13.46-12.36,13.46-12.36l-23.86.17Z"></path><path class="cls-3" d="M241.31,206.89c-.37,0-.75-.03-1.13-.1-7.53-1.41-10.84-12.25-10.97-12.71-.07-.23-.02-.47.12-.66.14-.19.36-.3.6-.3l23.86-.17h0c.25,0,.49.13.63.34.14.22.16.49.05.72-.25.55-6.01,12.89-13.15,12.89ZM230.97,194.6c.96,2.61,4.06,9.7,9.48,10.71,5.39,1.02,10.48-7.75,12.11-10.87l-21.59.15Z"></path></g><g><path class="cls-2" d="M242.52,196.93l-2.24.02c-10.61.11-19.31-8.39-19.42-19-.06-6.07,1.66-17.62,1.66-17.62,0,0,8.87-3.19,15.83-5.81,11.68-4.42,14.83-10.73,14.83-10.73.22,3.26,1.44,9.28,2.75,12.27,1.26,2.87,5.21,8.01,5.21,8.01,0,0,.34,9.48.38,13.43.11,10.61-8.39,19.31-19,19.42h0Z"></path><path class="cls-3" d="M240.07,197.71c-5.25,0-10.2-2.02-13.96-5.69-3.81-3.73-5.94-8.72-6-14.05-.06-6.06,1.6-17.27,1.67-17.74.04-.27.23-.5.49-.6.09-.03,8.95-3.22,15.82-5.81,11.22-4.24,14.39-10.3,14.42-10.36.15-.3.49-.47.82-.4.33.07.58.35.6.68.22,3.21,1.44,9.17,2.69,12.02,1.2,2.76,5.08,7.81,5.12,7.86.09.12.15.27.15.43,0,.1.34,9.53.38,13.45.06,5.33-1.96,10.37-5.69,14.18-3.71,3.79-8.65,5.92-13.95,6-.03,0-.07,0-.1,0l-2.24.02c-.07,0-.15,0-.22,0ZM242.52,196.93h0,0ZM223.2,160.88c-.31,2.17-1.64,11.79-1.59,17.06.05,4.93,2.02,9.55,5.55,12.99,3.52,3.45,8.15,5.34,13.11,5.26l2.14-.02s.07,0,.1,0c4.93-.05,9.55-2.02,12.99-5.55,3.45-3.52,5.32-8.18,5.26-13.11-.04-3.55-.32-11.68-.37-13.17-.74-.98-4-5.34-5.16-7.98-1.09-2.49-2.13-7.03-2.59-10.46-1.8,2.26-5.89,6.24-14.03,9.31-6.02,2.27-13.57,5-15.42,5.67Z"></path></g><ellipse class="cls-3" cx="249.96" cy="165.77" rx="1.32" ry="3.26" transform="translate(-1.81 2.76) rotate(-.63)"></ellipse><ellipse class="cls-3" cx="232.45" cy="165.35" rx="1.32" ry="3.26" transform="translate(-1.8 2.57) rotate(-.63)"></ellipse><g><path class="cls-2" d="M229.56,207.49c-4.15-2.22-10.7,1.1-11.34,3.43-.63,2.32,1.94,38.9,11.34,44.54,4.07,2.44,11.4-6.31,11.4-6.31,0,0-10.48-4.6-11.4-41.65h0Z"></path><path class="cls-3" d="M231.18,256.65c-.7,0-1.38-.16-2.01-.54-9.9-5.94-12.37-42.83-11.67-45.38.42-1.56,2.47-2.93,4.24-3.7,2.96-1.28,6.01-1.35,8.17-.2.24.13.4.38.4.66h0c.89,36.15,10.85,40.93,10.95,40.97.22.09.38.29.43.52.05.23,0,.47-.16.65-.68.81-6.01,7.01-10.35,7.01ZM226.36,207.51c-1.26,0-2.65.3-4.03.9-1.97.85-3.2,2.01-3.39,2.71-.43,1.6,1.96,38.28,11,43.7,2.64,1.59,7.58-2.96,9.88-5.5-2.58-1.94-10.16-10.28-11-41.34-.72-.31-1.56-.46-2.46-.46Z"></path></g><g><path class="cls-2" d="M252.65,207.49c4.15-2.22,10.7,1.1,11.34,3.43s-1.94,38.9-11.34,44.54c-4.07,2.44-11.4-6.31-11.4-6.31,0,0,10.48-4.6,11.4-41.65h0Z"></path><path class="cls-3" d="M251.02,256.65c-4.34,0-9.67-6.2-10.35-7.01-.15-.18-.21-.42-.16-.65.05-.23.21-.42.43-.52.09-.04,10.06-5.12,10.95-40.98,0-.27.16-.52.4-.65,2.15-1.15,5.21-1.08,8.17.2,1.77.76,3.82,2.14,4.24,3.7.69,2.55-1.78,39.45-11.67,45.38-.63.38-1.31.54-2.01.54ZM242.38,249.32c2.29,2.54,7.23,7.09,9.88,5.5,9.04-5.42,11.42-42.1,11-43.7-.19-.7-1.42-1.86-3.39-2.71-2.37-1.02-4.75-1.17-6.48-.43-.84,31.07-8.43,39.4-11,41.34Z"></path></g><g><path class="cls-3" d="M233.35,182.34l16.56-.18s-2.53,8.74-8.86,7.88c-6.33-.85-7.7-7.7-7.7-7.7h0Z"></path><path class="cls-3" d="M241.93,190.85c-.32,0-.65-.02-.99-.07-6.78-.92-8.32-8.22-8.33-8.29-.04-.22.01-.45.15-.62.14-.17.35-.27.58-.28l16.56-.18h0c.23,0,.46.11.6.3.14.19.19.43.12.66-.11.36-2.53,8.49-8.69,8.49ZM234.33,183.08c.59,1.77,2.36,5.61,6.82,6.22,4.39.59,6.84-4.25,7.69-6.38l-14.51.16Z"></path></g><g><path class="cls-2" d="M239.43,165.62s-1.94,10.06-.97,10.84,3.29.97,3.29.97"></path><path class="cls-3" d="M241.76,178.18s-.04,0-.06,0c-.26-.02-2.58-.24-3.7-1.13-.33-.26-1.32-1.06.7-11.57.08-.41.47-.68.88-.59.41.08.67.47.59.88-.81,4.21-1.47,9.21-1.16,10.17.62.42,2.03.68,2.81.75.41.04.72.4.68.81-.03.39-.36.69-.75.69ZM239.04,175.99h0,0Z"></path></g></g><path class="cls-3" d="M242.92,258.87c-6.44,0-12.77-1.01-18.8-3.01-6.04-1.99-11.71-4.93-16.85-8.75-5.5-4.07-10.23-9-14.05-14.66-1.91-2.82-3.57-5.81-4.95-8.88-3.51-7.76-5.3-16.05-5.3-24.65,0-.41.34-.75.75-.75s.75.34.75.75c0,8.38,1.74,16.46,5.16,24.03,1.35,3,2.97,5.91,4.83,8.66,3.73,5.52,8.34,10.33,13.71,14.3,5.02,3.72,10.54,6.59,16.43,8.53,5.89,1.95,12.06,2.93,18.33,2.93,17.85,0,34.49-8,45.64-21.94,1.71-2.12,3.29-4.4,4.7-6.78,5.3-8.96,8.11-19.24,8.11-29.73,0-.41.34-.75.75-.75s.75.34.75.75c0,10.76-2.88,21.3-8.31,30.49-1.44,2.44-3.07,4.78-4.82,6.96-11.44,14.3-28.5,22.5-46.81,22.5Z"></path></g><g><circle class="cls-2" cx="202.92" cy="245.88" r="19.35"></circle><path class="cls-3" d="M202.92,265.98c-11.09,0-20.1-9.02-20.1-20.1s9.02-20.1,20.1-20.1,20.11,9.02,20.11,20.1-9.02,20.1-20.11,20.1ZM202.92,227.28c-10.26,0-18.6,8.35-18.6,18.6s8.35,18.6,18.6,18.6,18.61-8.35,18.61-18.6-8.35-18.6-18.61-18.6Z"></path></g><g><path class="cls-3" d="M209.88,248.18h-15.48c-.41,0-.75-.34-.75-.75s.34-.75.75-.75h15.48c.41,0,.75.34.75.75s-.34.75-.75.75Z"></path><path class="cls-3" d="M202.14,255.92c-.41,0-.75-.34-.75-.75v-15.48c0-.41.34-.75.75-.75s.75.34.75.75v15.48c0,.41-.34.75-.75.75Z"></path></g><g><g><rect class="cls-2" x="193.61" y="278.52" width="93.68" height="9.75" rx="4.87" ry="4.87"></rect><path class="cls-3" d="M282.41,289.02h-83.93c-3.1,0-5.62-2.52-5.62-5.62s2.52-5.62,5.62-5.62h83.93c3.1,0,5.62,2.52,5.62,5.62s-2.52,5.62-5.62,5.62ZM198.48,279.27c-2.27,0-4.12,1.85-4.12,4.12s1.85,4.12,4.12,4.12h83.93c2.27,0,4.12-1.85,4.12-4.12s-1.85-4.12-4.12-4.12h-83.93Z"></path></g><g><rect class="cls-2" x="211.92" y="294.27" width="57.04" height="9.75" rx="4.87" ry="4.87"></rect><path class="cls-3" d="M264.09,304.77h-47.29c-3.1,0-5.62-2.52-5.62-5.62s2.52-5.62,5.62-5.62h47.29c3.1,0,5.62,2.52,5.62,5.62s-2.52,5.62-5.62,5.62ZM216.8,295.02c-2.27,0-4.12,1.85-4.12,4.12s1.85,4.12,4.12,4.12h47.29c2.27,0,4.12-1.85,4.12-4.12s-1.85-4.12-4.12-4.12h-47.29Z"></path></g></g><g><g><g><path class="cls-3" d="M190.55,355.15c-.48,0-.88.39-.88.88s.39.88.88.88c.59,0,1.06.48,1.06,1.06,0,.48.39.88.88.88s.88-.39.88-.88c0-1.55-1.26-2.82-2.82-2.82h0Z"></path><path class="cls-3" d="M198.27,352.09c-.1-.34-.42-.59-.77-.62-.36-.03-.71.17-.86.5-.16.34-.09.75.18,1,.27.26.68.32,1.01.15.37-.19.56-.64.44-1.03h0Z"></path><path class="cls-3" d="M200.9,357.38c.48,0,.88-.39.88-.88v-5.04c0-1.93-1.57-3.51-3.51-3.51h-.72l-.79-1.61c-.58-1.19-1.82-1.96-3.15-1.96h-6.11c-1.33,0-2.56.77-3.15,1.96l-.79,1.61h-.72c-1.93,0-3.51,1.57-3.51,3.51v9.41c0,1.93,1.57,3.51,3.51,3.51h15.44c1.92,0,3.49-1.56,3.51-3.49,0-.48-.39-.88-.87-.88h0c-.48,0-.87.39-.88.87,0,.96-.79,1.74-1.75,1.74h-3.32c1.24-1.17,2.01-2.82,2.01-4.66,0-3.53-2.88-6.41-6.41-6.41s-6.41,2.88-6.41,6.41c0,1.83.77,3.49,2.01,4.66h-3.32c-.97,0-1.75-.79-1.75-1.75v-9.41c0-.97.79-1.75,1.75-1.75h6.43c.48,0,.88-.39.88-.88s-.39-.88-.88-.88h-3.76l.41-.84c.29-.6.91-.98,1.57-.98h6.11c.66,0,1.28.39,1.57.98l1.03,2.11c.15.3.45.49.79.49h1.27c.97,0,1.75.79,1.75,1.75v5.04c0,.48.39.88.88.88h0ZM185.9,357.96c0-2.57,2.09-4.66,4.66-4.66s4.66,2.09,4.66,4.66-2.09,4.66-4.66,4.66-4.66-2.09-4.66-4.66h0Z"></path></g><path class="cls-3" d="M251.06,357.4c-.74-.65-1.65-1.22-2.68-1.68-.44-.2-.96,0-1.16.45s0,.96.45,1.16c.87.39,1.63.86,2.24,1.39.75.66,1.18,1.62,1.18,2.63v1.62c0,.48-.39.88-.88.88h-17.19c-.48,0-.88-.39-.88-.88v-1.62c0-1.01.43-1.97,1.18-2.63.89-.78,3.47-2.59,8.29-2.59,3.58,0,6.49-2.91,6.49-6.49s-2.91-6.49-6.49-6.49-6.49,2.91-6.49,6.49c0,2.09.99,3.95,2.54,5.14-2.82.62-4.57,1.81-5.49,2.62-1.13.99-1.78,2.43-1.78,3.95v1.62c0,1.45,1.18,2.63,2.63,2.63h17.19c1.45,0,2.63-1.18,2.63-2.63v-1.62c0-1.51-.65-2.95-1.78-3.95ZM236.88,349.64c0-2.61,2.12-4.73,4.73-4.73s4.73,2.12,4.73,4.73-2.12,4.73-4.73,4.73-4.73-2.12-4.73-4.73Z"></path><path class="cls-3" d="M296.18,355.06c.48,0,.88.39.88.88-.05,1.16-1.71,1.16-1.75,0,0-.48.39-.88.88-.88ZM300.61,348c-7.05-7.04-19.15-2.02-19.16,7.94v9.03c-.02,1.76,2.03,2.82,3.46,1.79l1.83-1.29c3.48,2.23,8.23,2.26,11.75.08.97-.64.11-2.06-.91-1.5-3.13,1.93-7.37,1.79-10.35-.36-.3-.21-.71-.21-1.01,0l-2.32,1.64c-.2.14-.38.07-.45.03-.07-.04-.24-.15-.24-.39v-9.03c0-5.22,4.25-9.47,9.47-9.47,7.48-.06,12.1,8.55,7.86,14.73-.27.4-.16.95.24,1.22.4.27.95.16,1.22-.24,2.98-4.32,2.38-10.52-1.39-14.17h0ZM291.8,355.94c0,.48.39.88.88.88,1.16-.05,1.16-1.71,0-1.75-.48,0-.88.39-.88.88h0ZM288.29,355.94c0,.48.39.88.88.88,1.16-.05,1.16-1.71,0-1.75-.48,0-.88.39-.88.88Z"></path></g><g><path class="cls-3" d="M223.74,355.6h-14.37c-.41,0-.75-.34-.75-.75s.34-.75.75-.75h14.37c.41,0,.75.34.75.75s-.34.75-.75.75Z"></path><polygon class="cls-3" points="218.77 360.98 217.75 359.88 223.17 354.85 217.75 349.81 218.77 348.71 225.37 354.85 218.77 360.98"></polygon></g></g><g><path class="cls-3" d="M273.29,355.6h-14.37c-.41,0-.75-.34-.75-.75s.34-.75.75-.75h14.37c.41,0,.75.34.75.75s-.34.75-.75.75Z"></path><polygon class="cls-3" points="268.32 360.98 267.3 359.88 272.71 354.85 267.3 349.81 268.32 348.71 274.92 354.85 268.32 360.98"></polygon></g><g><g><line class="cls-1" x1="162.8" y1="105.74" x2="154.54" y2="114"></line><path class="cls-3" d="M154.54,114.75c-.19,0-.38-.07-.53-.22-.29-.29-.29-.77,0-1.06l8.26-8.26c.29-.29.77-.29,1.06,0s.29.77,0,1.06l-8.26,8.26c-.15.15-.34.22-.53.22Z"></path></g><g><line class="cls-1" x1="162.8" y1="114" x2="154.54" y2="105.74"></line><path class="cls-3" d="M162.8,114.75c-.19,0-.38-.07-.53-.22l-8.26-8.26c-.29-.29-.29-.77,0-1.06s.77-.29,1.06,0l8.26,8.26c.29.29.29.77,0,1.06-.15.15-.34.22-.53.22Z"></path></g></g><path class="cls-3" d="M321.74,114.75c-.23,0-.45-.1-.6-.3-.25-.33-.18-.8.15-1.05l4.71-3.53-4.71-3.53c-.33-.25-.4-.72-.15-1.05.25-.33.72-.4,1.05-.15l5.5,4.13c.19.14.3.36.3.6s-.11.46-.3.6l-5.5,4.13c-.13.1-.29.15-.45.15Z"></path></g></svg>