<svg transform="scale(1)" version="1.1" id="btJPUfFYAy" xmlns="http://www.w3.org/2000/svg" xmlns:xlink="http://www.w3.org/1999/xlink" x="0px" y="0px" viewBox="0 0 500 500" xml:space="preserve" class="pbimage_pbimage__wrapper__image__0LEis false"><title>Card Payment</title><style type="text/css"> .st0{fill:#231F20;} .st1{fill:#FFFFFF;} .st2{fill:#68E1FD;} .st3{fill:#D1D3D4;}
 .st3{fill:#D1D3D4;}
 .st2{fill:#c1c6a4;}
 .st1{fill:#FFFFFF;}
 .st0{fill:#231F20;}</style><g id="Payment_Machine"><path class="st0" d="M214.5,162.5h32.9c3.1,0,5.7,2.6,5.7,5.7v203.1c0,3.1-2.6,5.7-5.7,5.7c0,0,0,0,0,0h-32.9l0,0V162.5
		L214.5,162.5z" fill="#231F20"></path><path class="st0" d="M247.4,377.7h-32.9c-0.4,0-0.7-0.3-0.7-0.7l0,0V162.5c0-0.4,0.3-0.7,0.7-0.7h32.9c3.5,0,6.4,2.9,6.4,6.4v203.1
		C253.8,374.9,250.9,377.7,247.4,377.7z M215.2,376.3h32.2c2.8,0,5-2.2,5-5V168.2c0-2.8-2.2-5-5-5h-32.2V376.3z" fill="#231F20"></path><polygon class="st0" points="93,157.5 78.9,164.1 87.3,372.7 102.4,372.7 	" fill="#231F20"></polygon><path class="st0" d="M102.4,373.4H87.3c-0.4,0-0.7-0.3-0.7-0.7l-8.4-208.7c0-0.3,0.1-0.5,0.4-0.7l14.1-6.6c0.3-0.2,0.8,0,0.9,0.3
		c0,0.1,0.1,0.2,0.1,0.3l9.4,215.2c0,0.2-0.1,0.4-0.2,0.5C102.8,373.4,102.6,373.4,102.4,373.4z M88,372h13.8l-9.4-213.4l-12.7,5.9
		L88,372z" fill="#231F20"></path><path class="st1" d="M224.3,371.8c-0.2,6-4.3,11.2-10.1,12.9c-37.2,10.4-76.5,10.4-113.7,0c-5.8-1.7-9.8-6.9-10-12.9L84,162.5
		c-0.2-6.5,4.2-12.3,10.5-13.9c12-3,33.7-7,62.9-7s50.9,4,62.9,7c6.3,1.6,10.7,7.4,10.5,13.9L224.3,371.8z" fill="#FFFFFF"></path><path class="st0" d="M157.4,393.2c-19.3,0.1-38.5-2.5-57-7.8c-6.1-1.7-10.4-7.2-10.6-13.6l-6.5-209.3c-0.2-6.8,4.4-12.9,11-14.6
		c12.9-3.2,34.4-7,63.1-7s50.1,3.8,63.1,7c6.6,1.7,11.2,7.7,11,14.6L225,371.8c-0.2,6.3-4.5,11.8-10.6,13.6
		C195.9,390.7,176.7,393.3,157.4,393.2z M157.4,142.4c-28.6,0-49.9,3.8-62.7,7c-6,1.5-10.2,7-10,13.2l6.5,209.3
		c0.2,5.7,4,10.7,9.6,12.3c18.4,5.2,37.5,7.8,56.7,7.7c19.2,0.1,38.2-2.5,56.7-7.7c5.5-1.6,9.4-6.5,9.6-12.3l0,0l6.5-209.3
		c0.2-6.2-4-11.7-9.9-13.2C207.3,146.1,185.9,142.4,157.4,142.4z" fill="#231F20"></path><path class="st2" d="M108.2,168.1h98.5c4.3,0,7.9,3.5,7.9,7.9v72c0,4.3-3.5,7.9-7.9,7.9h-98.5c-4.3,0-7.9-3.5-7.9-7.9v-72
		C100.3,171.6,103.8,168.1,108.2,168.1z" fill="#c1c6a4"></path><path class="st0" d="M155.7,272c-22.9-0.1-45.8-1.5-68.6-4.2c-0.4-0.1-0.7-0.4-0.6-0.8c0,0,0,0,0,0c0-0.4,0.4-0.6,0.8-0.6
		c0,0,0,0,0,0c0.9,0.1,92.1,11.8,140.1-4.5c0.4-0.2,0.8,0,0.9,0.4c0.2,0.4,0,0.8-0.4,0.9c0,0-0.1,0-0.1,0
		C208,270,180.9,272,155.7,272z" fill="#231F20"></path><path class="st2" d="M108,354.8h22.3c1.5,0,2.6,1.2,2.6,2.6v8.5c0,1.5-1.2,2.6-2.6,2.6H108c-1.5,0-2.7-1.2-2.7-2.6v-8.5
		C105.3,356,106.5,354.8,108,354.8z" fill="#c1c6a4"></path><path class="st0" d="M130.3,369.3H108c-1.8,0-3.3-1.5-3.3-3.3v-8.5c0-1.9,1.5-3.4,3.3-3.4c0,0,0,0,0,0h22.3c1.8,0,3.3,1.5,3.4,3.4
		v8.5C133.6,367.8,132.1,369.3,130.3,369.3C130.3,369.3,130.3,369.3,130.3,369.3z M108,355.5c-1.1,0-1.9,0.9-1.9,2v8.5
		c0,1.1,0.9,1.9,1.9,1.9h22.3c1.1,0,2-0.9,2-1.9v-8.5c0-1.1-0.9-2-2-2H108z" fill="#231F20"></path><path class="st3" d="M146.2,354.8h22.3c1.5,0,2.6,1.2,2.6,2.6v8.5c0,1.5-1.2,2.6-2.6,2.6h-22.3c-1.5,0-2.6-1.2-2.6-2.6v-8.5
		C143.6,356,144.8,354.8,146.2,354.8z" fill="#D1D3D4"></path><path class="st0" d="M168.5,369.3h-22.3c-1.8,0-3.3-1.5-3.3-3.3v-8.5c0-1.8,1.5-3.3,3.3-3.4h22.3c1.9,0,3.4,1.5,3.4,3.4l0,0v8.5
		C171.9,367.8,170.4,369.3,168.5,369.3z M146.2,355.5c-1.1,0-1.9,0.9-1.9,2v8.5c0,1.1,0.9,1.9,1.9,1.9l0,0h22.3c1.1,0,2-0.8,2-1.9
		c0,0,0,0,0-0.1v-8.5c0-1.1-0.9-2-2-2H146.2z" fill="#231F20"></path><path class="st2" d="M184.5,354.8h22.3c1.5,0,2.6,1.2,2.6,2.6v8.5c0,1.5-1.2,2.6-2.6,2.6h-22.3c-1.5,0-2.6-1.2-2.6-2.6v-8.5
		C181.9,356,183,354.8,184.5,354.8z" fill="#c1c6a4"></path><path class="st0" d="M206.8,369.3h-22.3c-1.8,0-3.3-1.5-3.3-3.3v-8.5c0-1.8,1.5-3.3,3.3-3.4h22.3c1.9,0,3.4,1.5,3.4,3.4l0,0v8.5
		C210.1,367.8,208.6,369.3,206.8,369.3z M184.5,355.5c-1.1,0-1.9,0.9-1.9,2v8.5c0,1.1,0.9,1.9,1.9,1.9l0,0h22.3c1.1,0,2-0.8,2-1.9
		c0,0,0,0,0-0.1v-8.5c0-1.1-0.9-2-2-2H184.5z" fill="#231F20"></path><path class="st0" d="M130.3,347.2H108c-1.8,0-3.3-1.5-3.3-3.3v-8.5c0-1.9,1.5-3.4,3.3-3.4c0,0,0,0,0,0h22.3c1.8,0,3.3,1.5,3.4,3.4
		v8.5C133.6,345.7,132.1,347.2,130.3,347.2C130.3,347.2,130.3,347.2,130.3,347.2z M108,333.5c-1.1,0-2,0.9-2,1.9v8.5
		c0,1.1,0.9,1.9,1.9,1.9h22.3c1.1,0,2-0.9,2-1.9v-8.5c0-1.1-0.9-2-2-2L108,333.5z" fill="#231F20"></path><path class="st0" d="M168.5,347.2h-22.3c-1.8,0-3.3-1.5-3.3-3.3v-8.5c0-1.8,1.5-3.3,3.3-3.4h22.3c1.9,0,3.4,1.5,3.4,3.4l0,0v8.5
		C171.9,345.7,170.4,347.2,168.5,347.2z M146.2,333.5c-1.1,0-1.9,0.9-1.9,1.9c0,0,0,0,0,0v8.5c0,1.1,0.9,1.9,1.9,1.9l0,0h22.3
		c1.1,0,2-0.8,2-1.9c0,0,0,0,0-0.1v-8.5c0-1.1-0.9-2-2-2L146.2,333.5z" fill="#231F20"></path><path class="st0" d="M206.8,347.2h-22.3c-1.8,0-3.3-1.5-3.3-3.3v-8.5c0-1.8,1.5-3.3,3.3-3.4h22.3c1.9,0,3.4,1.5,3.4,3.4l0,0v8.5
		C210.1,345.7,208.6,347.2,206.8,347.2z M184.5,333.5c-1.1,0-1.9,0.9-1.9,1.9c0,0,0,0,0,0v8.5c0,1.1,0.9,1.9,1.9,1.9l0,0h22.3
		c1.1,0,2-0.8,2-1.9c0,0,0,0,0-0.1v-8.5c0-1.1-0.9-2-2-2L184.5,333.5z" fill="#231F20"></path><path class="st0" d="M130.3,325.2H108c-1.9,0-3.3-1.5-3.3-3.4l0,0v-8.5c0-1.8,1.5-3.3,3.3-3.3h22.3c1.8,0,3.3,1.5,3.4,3.3v8.5
		C133.6,323.7,132.1,325.2,130.3,325.2z M108,311.4c-1.1,0-1.9,0.9-1.9,1.9v8.5c0,1.1,0.9,1.9,1.9,2h22.3c1.1,0,2-0.9,2-2v-8.5
		c0-1.1-0.9-1.9-2-1.9H108z" fill="#231F20"></path><path class="st0" d="M168.5,325.2h-22.3c-1.8,0-3.3-1.5-3.3-3.4v-8.5c0-1.8,1.5-3.3,3.3-3.3h22.3c1.8,0,3.3,1.5,3.4,3.3v8.5
		C171.9,323.7,170.4,325.2,168.5,325.2L168.5,325.2z M146.2,311.4c-1.1,0-1.9,0.9-1.9,1.9l0,0v8.5c0,1.1,0.9,1.9,1.9,1.9
		c0,0,0,0,0,0h22.3c1.1,0,2-0.9,2-2v-8.5c0-1.1-0.9-1.9-1.9-1.9c0,0,0,0-0.1,0H146.2z" fill="#231F20"></path><path class="st0" d="M206.8,325.2h-22.3c-1.8,0-3.3-1.5-3.3-3.4v-8.5c0-1.8,1.5-3.3,3.3-3.3h22.3c1.8,0,3.3,1.5,3.4,3.3v8.5
		C210.1,323.7,208.6,325.2,206.8,325.2L206.8,325.2z M184.5,311.4c-1.1,0-1.9,0.9-1.9,1.9l0,0v8.5c0,1.1,0.9,1.9,1.9,1.9
		c0,0,0,0,0,0h22.3c1.1,0,2-0.9,2-2v-8.5c0-1.1-0.9-1.9-1.9-1.9c0,0,0,0-0.1,0H184.5z" fill="#231F20"></path><path class="st0" d="M130.3,303H108c-1.9,0-3.3-1.5-3.3-3.4l0,0v-8.5c0-1.9,1.5-3.4,3.3-3.4c0,0,0,0,0,0h22.3
		c1.8,0,3.3,1.5,3.4,3.4v8.5C133.6,301.5,132.1,303,130.3,303z M108,289.2c-1.1,0-1.9,0.9-1.9,2v8.5c0,1.1,0.9,1.9,1.9,2h22.3
		c1.1,0,2-0.9,2-2v-8.5c0-1.1-0.9-2-2-2H108z" fill="#231F20"></path><path class="st0" d="M168.5,303h-22.3c-1.8,0-3.3-1.5-3.3-3.4v-8.5c0-1.8,1.5-3.3,3.3-3.4h22.3c1.9,0,3.4,1.5,3.4,3.4l0,0v8.5
		C171.9,301.5,170.4,303,168.5,303L168.5,303z M146.2,289.2c-1.1,0-1.9,0.9-1.9,2v8.5c0,1.1,0.9,1.9,1.9,2h22.3c1.1,0,2-0.9,2-2
		v-8.5c0-1.1-0.9-2-2-2H146.2z" fill="#231F20"></path><path class="st0" d="M206.8,303h-22.3c-1.8,0-3.3-1.5-3.3-3.4v-8.5c0-1.8,1.5-3.3,3.3-3.4h22.3c1.9,0,3.4,1.5,3.4,3.4l0,0v8.5
		C210.1,301.5,208.6,303,206.8,303L206.8,303z M184.5,289.2c-1.1,0-1.9,0.9-1.9,2v8.5c0,1.1,0.9,1.9,1.9,2h22.3c1.1,0,2-0.9,2-2
		v-8.5c0-1.1-0.9-2-2-2H184.5z" fill="#231F20"></path><path class="st1" d="M103.9,155.7c1.4-0.4,107,0,107,0" fill="#FFFFFF"></path><path class="st0" d="M103.8,156.4c-0.3,0-0.6-0.2-0.7-0.5c-0.1-0.4,0.1-0.8,0.5-0.9c1.4-0.4,89.5-0.1,107.2,0
		c0.4,0,0.7,0.3,0.7,0.7c0,0.4-0.3,0.7-0.7,0.7l0,0c-36-0.1-104.8-0.3-106.8,0L103.8,156.4z" fill="#231F20"></path><rect class="st3" x="236.6" y="162.3" width="6.4" height="214.8" fill="#D1D3D4"></rect><path class="st0" d="M243,377.7h-6.4c-0.4,0-0.7-0.3-0.7-0.7l0,0V162.3c0-0.4,0.3-0.7,0.7-0.7h6.4c0.4,0,0.7,0.3,0.7,0.7V377
		C243.7,377.4,243.4,377.7,243,377.7C243,377.7,243,377.7,243,377.7z M237.3,376.3h5V163h-5V376.3z" fill="#231F20"></path></g><g id="hand"><path class="st1" d="M399.6,363.8l-48.4,27.4l-72.8-112.9c0.7-5.6-0.5-30.4,7.4-25.6s35,43.5,40,45.2s17.4-2.8,16.9-14.4
		s-0.6-31-11.7-33c-16.8-3-33.8,6.5-40.2,3.2s-11-12.8,0.6-18.2c13.3-6.2,40.8-8,62.1-3.3s33,49.8,31.1,81.8
		C388.1,334.8,397.1,354.4,399.6,363.8z"></path><path class="st0" d="M351.3,391.9c-0.2,0-0.5-0.1-0.6-0.3l-72.8-112.9c-0.1-0.1-0.1-0.3-0.1-0.5c0.1-1.1,0.2-3.1,0.3-5.4
		c0.4-10,1-19.2,4.5-21.1c1.2-0.6,2.6-0.4,3.6,0.4c4.1,2.6,13.2,13.8,21.9,24.7c7.7,9.6,15.7,19.6,17.9,20.4c2.4,0.8,7.1,0,10.8-2.8
		c3.5-2.5,5.5-6.7,5.2-11l-0.1-2.3c-0.5-11.3-1.2-28.3-11-30.1c-9-1.6-18.3,0.5-25.7,2.1c-6.5,1.5-11.6,2.6-14.7,1
		c-4.1-2.1-7-6.3-6.9-10.2c0-2.7,1.4-6.4,7.6-9.3c13.8-6.4,41.8-7.9,62.5-3.4c10,2.2,18.8,13.2,24.8,31.1
		c5.4,16.6,7.7,33.9,6.9,51.3c2.4,14.2,7.4,28,11,38c1.7,4.6,3.1,8.7,4,11.6c0.1,0.3-0.1,0.6-0.3,0.8l-48.4,27.5
		C351.5,391.8,351.4,391.9,351.3,391.9z M279.1,278.1l72.3,112.1l47.3-26.8c-0.8-2.9-2.2-6.7-3.8-11c-3.7-10.1-8.7-24-11.1-38.4
		c0-0.1,0-0.1,0-0.2c1.8-30-9.3-76.4-30.6-81.1c-20.4-4.5-48.1-3-61.6,3.3c-4.4,2-6.7,4.8-6.8,8s2.5,7,6.1,8.9
		c2.7,1.4,7.8,0.2,13.8-1.1c7.5-1.7,16.9-3.8,26.2-2.2c10.9,2,11.7,19.7,12.2,31.4l0.1,2.3c0.3,4.8-1.9,9.4-5.7,12.2
		c-3.7,2.8-8.9,4-12.1,3c-2.4-0.8-8.6-8.4-18.6-20.8c-8.3-10.3-17.6-22-21.5-24.4c-0.6-0.5-1.5-0.6-2.2-0.3
		c-3.1,1.7-3.5,13.1-3.8,19.9C279.4,275,279.3,276.9,279.1,278.1z"></path><path class="st1" d="M215.7,179.3l65.7-38.6c5.4-3.2,12.4-1.4,15.6,4.1l59.2,100.8c3.2,5.4,1.4,12.4-4.1,15.6l-65.7,38.6
		c-5.4,3.2-12.4,1.4-15.6-4.1l-59.2-100.8C208.5,189.5,210.3,182.5,215.7,179.3z"></path><path class="st0" d="M280.7,302.1c-4.3,0-8.3-2.3-10.5-6l-59.2-100.8c-3.4-5.8-1.4-13.2,4.3-16.6l65.7-38.6
		c5.8-3.4,13.2-1.5,16.6,4.3l59.2,100.8c3.4,5.8,1.4,13.2-4.3,16.6l-65.7,38.6C285,301.5,282.9,302.1,280.7,302.1z M287.2,139.9
		c-1.9,0-3.8,0.5-5.4,1.5l-65.7,38.6c-5.1,3-6.8,9.6-3.8,14.7l59.2,100.8c3,5.1,9.6,6.8,14.7,3.8c0,0,0,0,0,0l65.7-38.6l0,0
		c5.1-3,6.8-9.5,3.8-14.6l-59.2-100.9c-1.4-2.5-3.8-4.2-6.5-4.9C289,140,288.1,139.9,287.2,139.9L287.2,139.9z"></path><path class="st2" d="M261.9,166.4l16.6-9.7c3.9-2.3,9-1,11.3,2.9l6.9,11.7c2.3,3.9,1,9-2.9,11.3l-16.6,9.7c-3.9,2.3-9,1-11.3-2.9
		l-6.9-11.7C256.7,173.8,258,168.8,261.9,166.4z"></path><path class="st3" d="M321.1,223L321.1,223c2.4-1.4,5.5-0.6,7,1.8l13.3,22.6c1.4,2.4,0.6,5.5-1.8,7v0c-2.4,1.4-5.5,0.6-7-1.8
		L319.3,230C317.9,227.5,318.7,224.4,321.1,223z"></path><path class="st3" d="M229.2,185.6l4.6-2.7c1.2-0.7,2.8-0.3,3.5,0.9l10,17c0.7,1.2,0.3,2.8-0.9,3.5l-4.6,2.7
		c-1.2,0.7-2.8,0.3-3.5-0.9l-10-17C227.6,187.9,228,186.4,229.2,185.6z"></path><path class="st3" d="M244.5,211.6l4.6-2.7c1.2-0.7,2.8-0.3,3.5,0.9l10,17c0.7,1.2,0.3,2.8-0.9,3.5L257,233
		c-1.2,0.7-2.8,0.3-3.5-0.9l-10-17C242.8,213.9,243.2,212.3,244.5,211.6z"></path><path class="st3" d="M259.7,237.5l4.6-2.7c1.2-0.7,2.8-0.3,3.5,0.9l10,17c0.7,1.2,0.3,2.8-0.9,3.5l-4.6,2.7
		c-1.2,0.7-2.8,0.3-3.5-0.9l-10-17C258.1,239.8,258.5,238.3,259.7,237.5z"></path><path class="st3" d="M275.2,261.9l4.6-2.7c1.2-0.7,2.8-0.3,3.5,0.9l10.1,17c0.7,1.2,0.3,2.8-0.9,3.5l-4.6,2.7
		c-1.2,0.7-2.8,0.3-3.5-0.9l-10.1-17C273.6,264.1,274,262.6,275.2,261.9z"></path><path class="st1" d="M291.4,298.4c0,0-19.4-30.1-22.2-35.8c-4.6-9.3,9.9-15.5,14.4-11.3c3.2,2.9,29.3,32.9,32.6,36.7"></path><path class="st0" d="M291.4,299.1c-0.2,0-0.5-0.1-0.6-0.3c-0.8-1.2-19.4-30.1-22.2-35.8c-2-3.9-0.9-8,2.9-10.9s9.6-4,12.6-1.3
		c3.4,3.1,29.8,33.4,32.6,36.8c0.3,0.3,0.3,0.7,0,1c-0.3,0.3-0.7,0.3-1,0c0,0,0,0-0.1-0.1c-3.6-4.3-29.4-33.8-32.5-36.7
		c-2.1-1.9-7.3-1.3-10.8,1.4c-1.5,1.2-4.9,4.4-2.5,9.1c2.8,5.6,22,35.4,22.1,35.7c0.2,0.3,0.2,0.7-0.2,1c0,0,0,0-0.1,0
		C291.6,299.1,291.5,299.1,291.4,299.1z"></path><polygon class="st0" points="421.1,378.8 395.2,328 323.8,359 337.5,412.5 	"></polygon><path class="st0" d="M337.5,413.2c-0.3,0-0.6-0.2-0.7-0.5l-13.7-53.5c-0.1-0.3,0.1-0.7,0.4-0.8l71.4-31c0.3-0.2,0.7,0,0.9,0.3
		l25.9,50.8c0.1,0.2,0.1,0.4,0,0.6c-0.1,0.2-0.2,0.3-0.4,0.4l-83.5,33.7C337.7,413.2,337.6,413.2,337.5,413.2z M324.6,359.4
		l13.4,52.2l82.1-33.1l-25.2-49.6L324.6,359.4z"></path></g><g id="payment_note"><path class="st1" d="M202.8,155.7V89.5l-8.3,6.7l-7.1-7.5l-8.7,7.1l-6.9-8.3l-7.8,8.1l-7.2-8.1l-7.5,7.8l-7.6-7.8l-6.6,7.4l-9-6.2
		l-4.4,5.6l-9.7-6.8v68.2H202.8z"></path><path class="st0" d="M202.8,156.4H112c-0.4,0-0.7-0.3-0.7-0.7V87.5c0-0.3,0.1-0.5,0.4-0.6c0.2-0.1,0.5-0.1,0.7,0l9.1,6.4l4-5.1
		c0.2-0.3,0.7-0.4,1-0.2c0,0,0,0,0,0l8.5,6l6.1-7c0.1-0.1,0.3-0.2,0.5-0.2c0.2,0,0.4,0.1,0.5,0.2l7.1,7.2l7-7.2
		c0.1-0.1,0.3-0.2,0.5-0.2c0.2,0,0.4,0.1,0.5,0.2l6.7,7.5l7.3-7.5c0.1-0.1,0.3-0.2,0.5-0.2c0.2,0,0.4,0.1,0.5,0.2l6.5,7.8l8.2-6.7
		c0.3-0.2,0.7-0.2,0.9,0.1l6.6,7l7.8-6.3c0.2-0.2,0.5-0.2,0.7-0.1c0.2,0.1,0.4,0.4,0.4,0.6v66.2C203.5,156,203.2,156.4,202.8,156.4
		C202.8,156.4,202.8,156.4,202.8,156.4z M112.8,155h89.3V91l-7.1,5.8c-0.3,0.3-0.7,0.2-1,0c0,0,0,0,0,0l-6.6-7l-8.2,6.7
		c-0.3,0.2-0.7,0.2-1-0.1c0,0,0,0,0,0l-6.4-7.7l-7.3,7.5c-0.1,0.1-0.3,0.2-0.5,0.2c-0.2,0-0.4-0.1-0.5-0.2l-6.7-7.5l-7,7.2
		c-0.1,0.1-0.3,0.2-0.5,0.2c-0.2,0-0.4-0.1-0.5-0.2l-7.1-7.2l-6.1,6.8c-0.2,0.3-0.6,0.3-0.9,0.1l-8.5-5.9l-4,5.1
		c-0.2,0.3-0.7,0.4-1,0.2c0,0,0,0,0,0l-8.6-6L112.8,155z"></path><path class="st3" d="M189.4,111.9h-68.5c-0.4,0-0.7-0.3-0.7-0.7s0.3-0.7,0.7-0.7h68.5c0.4,0,0.7,0.3,0.7,0.7
		S189.8,111.9,189.4,111.9z"></path><path class="st3" d="M171.7,127.1h-50.8c-0.4,0-0.7-0.3-0.7-0.7c0-0.4,0.3-0.7,0.7-0.7l0,0h50.8c0.4,0,0.7,0.3,0.7,0.7l0,0
		C172.5,126.8,172.1,127.1,171.7,127.1z"></path><path class="st3" d="M180.1,142.4h-59.2c-0.4,0-0.7-0.3-0.7-0.7s0.3-0.7,0.7-0.7h59.2c0.4,0,0.7,0.3,0.7,0.7
		S180.5,142.4,180.1,142.4z"></path></g></svg>