<svg transform="scale(1)" version="1.1" id="dcm9mGM0t0" xmlns="http://www.w3.org/2000/svg" xmlns:xlink="http://www.w3.org/1999/xlink" x="0px" y="0px" viewBox="0 0 500 500" xml:space="preserve" class="pbimage_pbimage__wrapper__image__0LEis false"><title>Leadership 2</title><style type="text/css"> .st0{fill:#FFFFFF;} .st1{fill:#231F20;} .st2{fill:#68E1FD;} .st3{fill:none;}
 .st2{fill:#c1c6a4;}
 .st1{fill:#231F20;}
 .st0{fill:#FFFFFF;}</style><g id="clouds"><path class="st0" d="M429.6,137.8c0,0-0.9-10.8-22.5-7.7c0,0-3.6-22.1-30.6-24.8c-20.3-2-30.6,11.7-30.6,11.7s-9.9-9.9-21.6-3.6
		s-10.8,12.2-10.8,12.2s-17.1-3.6-20.3,5c-10.6-4-19.4,0-35.6,2.7c-12.5,2.1-34.2,2.6-34.2,2.6L429.6,137.8z" fill="#FFFFFF"></path><path class="st1" d="M429.6,138.6L429.6,138.6l-206.3-1.8c-0.4,0-0.8-0.3-0.8-0.8s0.3-0.8,0.8-0.8c0.2,0,21.8-0.6,34.1-2.7
		c4.1-0.7,7.8-1.5,11-2.2c9.5-2,16.4-3.5,24.3-0.7c3.5-7.2,16.4-5.5,20-4.9c0.2-2,1.9-6.9,11.2-11.9c10.4-5.6,19.5,1.2,21.9,3.2
		c2.4-2.7,12.8-13.2,30.8-11.4c24.5,2.4,30.2,20.8,31.1,24.7c8.9-1.2,15.3-0.2,19.3,2.9c1.8,1.3,3,3.3,3.4,5.5
		c0,0.2-0.1,0.4-0.2,0.6C430,138.5,429.8,138.6,429.6,138.6z M245.9,135.4l182.7,1.6c-0.5-1.5-1.5-2.7-2.7-3.7
		c-2.5-2-7.9-4.1-18.8-2.5c-0.4,0.1-0.8-0.2-0.9-0.6c-0.1-0.9-3.9-21.5-30-24.2c-19.7-2-29.9,11.3-30,11.4c-0.1,0.2-0.3,0.3-0.5,0.3
		c-0.2,0-0.4-0.1-0.6-0.2c-0.4-0.4-9.7-9.4-20.7-3.5s-10.4,11.3-10.4,11.4c0.1,0.4-0.2,0.8-0.6,0.8c-0.1,0-0.2,0-0.3,0
		c-0.2,0-16.5-3.4-19.4,4.5c-0.1,0.2-0.2,0.3-0.4,0.4c-0.2,0.1-0.4,0.1-0.6,0c-7.8-3-14.6-1.5-24.1,0.6c-3.2,0.7-6.9,1.5-11,2.2
		C254.2,134.6,250.1,135.1,245.9,135.4L245.9,135.4z" fill="#231F20"></path><path class="st0" d="M253.6,188.1c0,0-0.9-10.8-22.5-7.7c0,0-3.6-22.1-30.6-24.8c-20.3-2-30.6,11.7-30.6,11.7s-9.9-9.9-21.6-3.6
		s-10.8,12.2-10.8,12.2s-17.1-3.6-20.3,4.9c-10.7-4.1-19.4,0-35.6,2.7c-12.5,2.1-34.2,2.7-34.2,2.7L253.6,188.1z" fill="#FFFFFF"></path><path class="st1" d="M253.6,188.9L253.6,188.9L47.3,187c-0.4,0-0.7-0.3-0.7-0.7l0,0c0-0.4,0.3-0.7,0.7-0.8c0.2,0,21.8-0.6,34.1-2.7
		c4.1-0.7,7.8-1.5,11-2.2c9.5-2,16.4-3.5,24.3-0.7c3.5-7.2,16.4-5.5,20-4.9c0.2-2,1.9-6.9,11.2-11.9c10.4-5.6,19.5,1.1,21.9,3.2
		c2.4-2.7,12.8-13.2,30.8-11.4c24.5,2.4,30.2,20.8,31.1,24.7c8.9-1.2,15.3-0.2,19.3,2.9c1.8,1.3,3,3.3,3.4,5.5c0,0.2,0,0.4-0.2,0.6
		C254,188.7,253.8,188.8,253.6,188.9z M69.9,185.7l182.7,1.6c-0.5-1.5-1.5-2.8-2.7-3.7c-2.6-2-7.9-4.1-18.8-2.5
		c-0.4,0.1-0.8-0.2-0.9-0.6c-0.1-0.9-3.9-21.5-30-24.1c-19.7-2-29.9,11.3-30,11.4c-0.1,0.2-0.3,0.3-0.6,0.3c-0.2,0-0.4-0.1-0.6-0.2
		c-0.4-0.4-9.7-9.4-20.7-3.5S138,175.8,138,175.8c0,0.2-0.1,0.5-0.2,0.6c-0.2,0.2-0.4,0.2-0.7,0.2c-0.2,0-16.5-3.4-19.4,4.5
		c-0.1,0.4-0.6,0.6-1,0.5c0,0,0,0,0,0c-7.7-3-14.6-1.5-24.1,0.6c-3.2,0.7-6.9,1.5-11.1,2.2C78.2,184.9,74.1,185.4,69.9,185.7z" fill="#231F20"></path></g><g id="wave_back"><path class="st1" d="M400.1,357.2c-7.3,0-11-2.1-14.6-4.1s-6.9-3.9-13.8-3.9s-10.3,1.9-13.8,3.9s-7.3,4.1-14.6,4.1
		s-11-2.1-14.6-4.1s-6.9-3.9-13.8-3.9s-10.3,1.9-13.8,3.9s-7.3,4.1-14.6,4.1s-11-2.1-14.6-4.1s-6.9-3.9-13.8-3.9s-10.3,1.9-13.8,3.9
		s-7.3,4.1-14.6,4.1s-11-2.1-14.6-4.1s-6.9-3.9-13.8-3.9s-10.3,1.9-13.8,3.9s-7.3,4.1-14.6,4.1s-11-2.1-14.6-4.1s-6.9-3.9-13.8-3.9
		s-10.3,1.9-13.8,3.9s-7.3,4.1-14.6,4.1s-11-2.1-14.6-4.1s-6.9-3.9-13.8-3.9s-10.3,1.9-13.8,3.9s-7.3,4.1-14.6,4.1s-11-2.1-14.6-4.1
		s-6.9-3.9-13.8-3.9c-0.4,0-0.8-0.3-0.8-0.8s0.3-0.8,0.8-0.8c7.3,0,11,2.1,14.6,4.1s6.9,3.9,13.8,3.9s10.3-1.9,13.8-3.9
		s7.3-4.1,14.6-4.1s11,2.1,14.6,4.1s6.9,3.9,13.8,3.9s10.3-1.9,13.8-3.9s7.3-4.1,14.6-4.1s11,2.1,14.6,4.1s6.9,3.9,13.8,3.9
		s10.3-1.9,13.8-3.9s7.3-4.1,14.6-4.1s11,2.1,14.6,4.1s6.9,3.9,13.8,3.9s10.3-1.9,13.8-3.9s7.3-4.1,14.6-4.1s11,2.1,14.6,4.1
		s6.9,3.9,13.8,3.9s10.3-1.9,13.8-3.9s7.3-4.1,14.6-4.1s11,2.1,14.6,4.1s6.9,3.9,13.8,3.9s10.3-1.9,13.8-3.9s7.3-4.1,14.6-4.1
		s11,2.1,14.6,4.1s6.9,3.9,13.8,3.9s10.3-1.9,13.8-3.9s7.3-4.1,14.6-4.1c0.4,0,0.8,0.3,0.8,0.8s-0.3,0.8-0.8,0.8
		c-6.9,0-10.3,1.9-13.8,3.9S407.4,357.2,400.1,357.2z"></path></g><g id="character_2"><path class="st1" d="M299,300.5c0,0,3.3,19.2-15.1,25.1s-63.3-7.3-63.3-7.3s12-21,25.2-20.7C259.1,298,299,300.5,299,300.5z"></path><path class="st1" d="M271.6,327.9c-20.7,0-49.7-8.4-51.2-8.9c-0.2-0.1-0.4-0.2-0.5-0.4c-0.1-0.2-0.1-0.5,0-0.7
		c0.5-0.9,12.4-21.4,25.9-21c13.1,0.3,52.8,2.8,53.2,2.9c0.3,0,0.6,0.3,0.7,0.6c0,0.2,3.1,19.9-15.6,25.9
		C280.1,327.5,275.8,328,271.6,327.9z M221.8,317.9c6.6,1.8,45.5,12.3,62,7c15.9-5.1,15-20.4,14.6-23.7c-5.1-0.3-40.3-2.5-52.5-2.8
		h-0.3C234.5,298.4,224.1,314,221.8,317.9L221.8,317.9z"></path><path class="st2" d="M299.4,261.1l7.6-1.6c-0.4-0.7-3.9-20.7-9.7-24.4c-5-4.1-15-4.6-26.3-5c-4-0.4-8.1-0.1-12,0.8
		c-8.5,2.4-16.8,5.5-24.8,9.2l13.4,17.5l5.9-2.6c-3.2,14.5-5.4,29.2-6.6,44.1c0,0,20.7,4.7,53.2,2.9
		C299.9,301.9,299,264.5,299.4,261.1L299.4,261.1z"></path><path class="st0" d="M246.4,255.4c0,0-11.5,10.4-18.8,10.4c-4.8,0-10.2-38.7-7.4-45c-0.7-0.7,5.4,9.1,8.9,11.8
		c1.1,0.9,3.1,12.2,4.8,13.2c1.1-0.8,4.1-3.6,4.1-3.6L246.4,255.4z"></path><path class="st1" d="M227.6,266.6c-0.8,0-1.5-0.5-2.2-1.6c-4.4-6.7-8.5-37.5-6.1-44.2c0,0,0-0.1,0-0.1c0.1-0.3,0.3-0.5,0.5-0.6
		c0.3-0.1,0.6,0,0.8,0.2c0.1,0.1,0.2,0.3,0.2,0.5c0.8,1.4,5.7,9,8.6,11.3c0.6,0.5,1.1,2,2.1,5.9c0.6,2.4,1.3,4.7,2.3,6.9
		c1.3-1,3.5-3.1,3.5-3.1c0.2-0.1,0.4-0.2,0.6-0.2c0.2,0,0.4,0.2,0.5,0.3L247,255c0.2,0.3,0.2,0.7-0.1,1
		C246.4,256.4,235.1,266.6,227.6,266.6z M220.4,222.9c-1.3,8.6,2.6,35.7,6.3,41.3c0.6,0.9,0.9,0.9,0.9,0.9c6.1,0,15.6-7.9,17.8-9.8
		l-7.6-11.9c-1,0.9-2.7,2.4-3.5,3c-0.3,0.2-0.6,0.2-0.8,0c-1.1-0.7-2-3.5-3.2-8.2c-0.4-1.8-0.9-3.5-1.7-5.1
		C226.7,231.7,222.4,226.1,220.4,222.9L220.4,222.9z"></path><path class="st1" d="M280.1,202c-2.1-0.9-6.4-1.8-8.6-2.4s-11.4-0.8-10.6,5.6c0.2,3.1,1.6,5.9,4,7.8c1.4,1.1,2.8,2.1,4.4,2.9
		l3.2,1.9c3.3,1.9,7.8,3.6,11.6,2C289.1,217.8,289.6,205.9,280.1,202z"></path><path class="st1" d="M280.9,221.3c-3.1-0.2-6.1-1.1-8.8-2.8l-3.2-1.9c-1.6-0.9-3.1-1.9-4.5-3c-2.5-2.1-4.1-5.1-4.3-8.3
		c-0.3-1.8,0.4-3.6,1.7-4.7c2.9-2.5,8.3-2.1,9.9-1.7c0.6,0.2,1.4,0.4,2.3,0.6c2.2,0.5,4.3,1.1,6.4,1.8l0,0c4.8,1.9,8,6.5,8,11.7
		c0,3.6-1.5,6.6-3.9,7.6C283.4,221,282.2,221.3,280.9,221.3z M268.8,200.1c-2,0-4.5,0.4-5.9,1.6c-1,0.8-1.4,2.1-1.2,3.4
		c0.2,2.9,1.6,5.5,3.8,7.4c1.3,1.1,2.8,2,4.3,2.8l3.2,1.9c3,1.8,7.4,3.5,11,2c1.8-0.8,3-3.3,3-6.2c0-4.6-2.8-8.7-7-10.3l0,0
		c-2-0.7-4.1-1.3-6.2-1.7l-2.3-0.6C270.5,200.2,269.7,200.1,268.8,200.1z"></path><path class="st0" d="M267.1,227.4l-0.1,9.3c0,0,1.4,4.8,7.1,3.7c3.4-0.7,6.3-2.8,7.9-5.9l0.7-15.7c0,0-4-2.4-2.4-11.3
		c-4.7,1.7-9.7,2.2-14.6,1.3c0,0-3,9.6-2.5,14S267.1,227.5,267.1,227.4L267.1,227.4z"></path><path class="st1" d="M272.4,241.4c-2.8,0-5.3-1.7-6.2-4.4c0-0.1,0-0.2,0-0.2l0.1-8.7c-2.3-0.7-3.9-2.8-4-5.2
		c-0.5-4.5,2.5-13.9,2.6-14.3c0.1-0.4,0.5-0.6,0.9-0.5c4.7,0.8,9.6,0.4,14.2-1.2c0.4-0.1,0.8,0.1,1,0.4c0,0.1,0.1,0.2,0,0.4
		c-1.5,8.2,2,10.5,2,10.6c0.2,0.1,0.4,0.4,0.4,0.7l-0.7,15.8c0,0.1,0,0.2-0.1,0.3c-1.7,3.3-4.8,5.6-8.4,6.3
		C273.5,241.3,273,241.4,272.4,241.4z M267.7,236.7c0.2,0.6,1.7,3.9,6.2,3.1c3.1-0.6,5.7-2.6,7.3-5.3l0.7-15.2
		c-1-0.8-3.5-3.7-2.5-10.6c-4.2,1.3-8.7,1.7-13.1,1c-0.6,2.2-2.7,9.5-2.3,13s2.8,3.9,3.2,4c0.2,0,0.3,0.1,0.5,0.2l0,0
		c0.2,0.2,0.3,0.4,0.3,0.7L267.7,236.7z"></path><path class="st0" d="M279.4,218.4c0.7-2.7,5.4-4.3,6.6-1.1c0.8,3.6-3.1,7.1-6.5,5.3"></path><path class="st1" d="M281.4,223.8c-0.8,0-1.6-0.2-2.3-0.6c-0.4-0.2-0.5-0.7-0.3-1c0.2-0.3,0.6-0.5,1-0.3c1.2,0.7,2.7,0.5,3.8-0.4
		c1.3-0.9,1.9-2.5,1.7-4.1c-0.3-0.8-1.1-1.3-1.9-1.2c-1.4,0.1-2.7,1-3.2,2.3c-0.1,0.4-0.5,0.6-0.9,0.5c-0.4-0.1-0.6-0.5-0.5-0.9
		c0.7-2,2.5-3.3,4.6-3.4c1.5-0.1,2.9,0.8,3.4,2.2c0,0,0,0.1,0,0.1c0.4,2.1-0.4,4.3-2.2,5.6C283.5,223.4,282.5,223.8,281.4,223.8z"></path><path class="st1" d="M266.9,232.8c2.1-0.3,4-1.2,5.7-2.6c2.6-2.2,2.4-3.6,2.4-3.6s-4.1,2-7.7,1.1L266.9,232.8L266.9,232.8z"></path><path class="st1" d="M266.9,233.5c-0.4,0-0.7-0.2-0.7-0.6l0,0c0-0.1,0-0.1,0-0.2l0.4-5.2c0-0.4,0.4-0.7,0.8-0.7c0,0,0.1,0,0.1,0
		c3.3,0.8,7.1-1,7.2-1c0.2-0.1,0.5-0.1,0.7,0c0.2,0.1,0.4,0.3,0.4,0.6c0,0.3,0,1.9-2.7,4.3c-1.7,1.5-3.8,2.4-6.1,2.8L266.9,233.5z
		 M268,228.5l-0.3,3.3c1.6-0.4,3.1-1.2,4.4-2.2c0.6-0.5,1.2-1.1,1.6-1.8C271.8,228.5,269.9,228.7,268,228.5L268,228.5z"></path><path class="st0" d="M269.5,214.8c0,0-3.3,4.1-2.7,4.9s2.6,0.5,2.6,0.5"></path><path class="st1" d="M268.5,221c-0.9,0.1-1.7-0.2-2.3-0.9c-0.2-0.3-1-1.3,2.7-5.8c0.3-0.3,0.7-0.4,1-0.1c0,0,0,0,0,0
		c0.3,0.3,0.4,0.7,0.1,1.1c0,0,0,0,0,0c-1.1,1.2-1.9,2.6-2.6,4.1c0.6,0.2,1.2,0.3,1.8,0.1c0.4-0.1,0.8,0.2,0.9,0.6c0,0,0,0,0,0
		c0.1,0.4-0.2,0.8-0.6,0.9C269.2,221,268.9,221,268.5,221z M267.5,219.4L267.5,219.4z"></path><ellipse class="st1" cx="273" cy="214.8" rx="0.7" ry="1"></ellipse><ellipse class="st1" transform="matrix(0.2945 -0.9556 0.9556 0.2945 -16.9167 405.4823)" cx="266.2" cy="214.2" rx="1" ry="0.7"></ellipse><path class="st0" d="M266.7,223.2c0,0,1.3,1.1,4.2,0.6"></path><path class="st1" d="M269.5,224.7c-1.2,0.1-2.3-0.2-3.3-0.9c-0.3-0.3-0.4-0.7-0.1-1.1c0.3-0.3,0.7-0.3,1-0.1
		c1.1,0.6,2.4,0.8,3.6,0.5c0.4-0.1,0.8,0.2,0.9,0.6c0.1,0.4-0.2,0.8-0.6,0.9C270.4,224.7,270,224.7,269.5,224.7z"></path><path class="st1" d="M285.7,264.6c-0.2,0-0.4-0.1-0.5-0.2c-0.2-0.1-0.3-0.4-0.2-0.6l0.5-7.9c0-0.4,0.4-0.7,0.8-0.7
		c0.4,0,0.7,0.4,0.7,0.8c0,0,0,0,0,0l-0.4,7l2.5-0.3c0.4-0.1,0.8,0.2,0.9,0.6c0,0.4-0.2,0.8-0.6,0.9l-3.4,0.5L285.7,264.6z"></path></g><g id="character_3"><path class="st0" d="M377.3,269.3c0,0-12.9,15.9-20.3,15.9c-4.8,0-19.1-14.9-21.3-17.1c-0.9-1-1.9-2-3-2.9c-1.7-1.1-3.5-2.1-5.4-3
		c-1.9-1-3.6-2.4-4.9-4.2c-0.5-0.7-0.8-1.5-0.8-2.4c0.1-2.2,4-3.9,5.8-3.8c2.1,0.1,10.7,5.2,12.9,5.4c5,4.1,10.2,7.9,15.6,11.3
		c4.9-4.7,8.6-6.2,8.6-6.2"></path><path class="st1" d="M357,285.9c-3.2,0-10.1-5.5-21.2-16.6l-0.7-0.7c-0.3-0.3-0.6-0.7-1-1c-0.6-0.7-1.2-1.3-1.9-1.9
		c-1-0.7-2.1-1.4-3.3-1.9c-0.7-0.3-1.3-0.7-2-1c-2-1.1-3.8-2.6-5.1-4.4c-0.6-0.8-0.9-1.8-0.9-2.9c0.2-2.7,4.5-4.6,6.6-4.5
		c1.2,0,3.4,1.1,7,2.9c2.4,1.1,5,2.5,5.9,2.5c0.1,0,0.3,0.1,0.4,0.2c4.8,3.9,9.8,7.6,15,11c2.4-2.4,5.3-4.5,8.4-6
		c0.4-0.2,0.8,0,1,0.4c0,0,0,0,0,0c0.2,0.4,0,0.8-0.4,1c0,0,0,0,0,0c-3.1,1.6-5.9,3.6-8.3,6.1c-0.2,0.2-0.6,0.3-0.9,0.1
		c-5.4-3.4-10.6-7.2-15.5-11.3c-2.2-0.7-4.2-1.6-6.2-2.7c-2.4-1.2-5.5-2.7-6.4-2.7c-1.7,0-5,1.6-5.1,3.1c0,0.7,0.2,1.4,0.7,1.9
		c1.2,1.7,2.8,3.1,4.6,4c0.6,0.4,1.2,0.7,1.9,1c1.2,0.6,2.4,1.3,3.6,2.1c0.8,0.6,1.5,1.3,2.1,2c0.3,0.3,0.6,0.6,0.9,1l0.7,0.7
		c13.2,13.4,18.2,16.2,20.1,16.2c6.9,0,19.5-15.4,19.6-15.6c0.3-0.3,0.7-0.4,1.1-0.1c0.3,0.3,0.4,0.7,0.1,1c0,0,0,0,0,0
		C377.3,270.5,364.6,285.9,357,285.9z"></path><path class="st1" d="M417,313.1c0,0,3.3,19.2-15,25.1s-63.3-7.3-63.3-7.3s12-21,25.2-20.7S417,313.1,417,313.1z"></path><path class="st1" d="M389.6,340.5c-20.7,0-49.7-8.4-51.2-8.9c-0.2-0.1-0.4-0.2-0.5-0.4c-0.1-0.2-0.1-0.5,0-0.7
		c0.5-0.9,12.2-21,25.6-21h0.3c13.1,0.3,52.8,2.8,53.2,2.9c0.3,0,0.6,0.3,0.7,0.6c0,0.2,3.1,19.9-15.6,26
		C398,340.2,393.8,340.7,389.6,340.5z M339.8,330.5c6.5,1.8,45.5,12.3,62,7c15.9-5.1,15-20.4,14.6-23.7c-5.1-0.3-40.3-2.5-52.5-2.8
		C352.6,310.8,342.1,326.7,339.8,330.5L339.8,330.5z"></path><g id="Character"><path class="st1" d="M394,240.1c6.2,7.6,17.4,4.3,21.4,1.3c3.9-2.2,7.8-10.9,2.6-18.5c-7.2-10.9-23.1-12.7-23.1-3.4
			C389.8,223.4,386.3,231.7,394,240.1z"></path><path class="st1" d="M404.6,245.5c-4.3,0.2-8.4-1.6-11.1-4.9c-3.4-3.7-5-7.7-4.7-11.7c0.4-3.9,2.4-7.4,5.4-9.8
			c0-2.8,1.9-5.3,4.6-5.9c5.5-1.7,14.8,1.7,19.9,9.3c2.4,3.5,3.1,7.8,2.2,11.8c-0.8,3.4-2.8,6.5-5.1,7.8
			C412.5,244.3,408.6,245.5,404.6,245.5z M402,214.2c-0.9,0-1.8,0.1-2.7,0.4c-2.2,0.5-3.7,2.6-3.6,4.9c0,0.2-0.1,0.5-0.3,0.6
			c-2.9,2.1-4.7,5.4-5.1,8.9c-0.3,3.6,1.1,7.2,4.3,10.6l0,0c6,7.3,16.9,3.8,20.4,1.2c2.3-1.6,3.9-4.1,4.4-6.9
			c0.9-3.7,0.2-7.5-2-10.6C413.5,217.4,406.9,214.2,402,214.2z"></path><path class="st2" d="M437.5,280.8c-0.4-0.8-11.3-26.7-15.8-29.8s-29-7.1-34.9-3.7c-7.2,4.5-30.1,18.7-30.1,18.7l11.8,14.9l9.8-4.9
			c0,0-1.2,12.3-6,35.5c0,0,13.8,4,46.2,2.2c0,0-0.6-10.8-1-17c-0.6-9.8-0.6-14-0.8-16.3C417,281.3,437.5,280.8,437.5,280.8z"></path><path class="st0" d="M394.6,239.6l-1.2,9.2c0,0,0.9,4.9,6.6,4.5c3.4-0.3,6.6-2.1,8.5-5l2.5-15.5c0,0-5.1,1-2.5-7.6
			c0,0-9.5-0.8-13.2-4.2c0.6,0.4-3.4,9.6-4.1,13.6C391.2,238.9,394.6,239.6,394.6,239.6L394.6,239.6z"></path><path class="st1" d="M399.3,254.1c-3.2,0.1-6-2-6.6-5.1c0-0.1,0-0.1,0-0.2l1.1-8.6c-2.2-1-3.5-3.2-3.4-5.6c0,0,0-0.1,0-0.1
			c0.6-2.8,1.5-5.5,2.5-8.2c0.6-1.6,1.2-3.3,1.6-5c-0.2-0.4,0-0.8,0.3-1c0.2-0.1,0.5-0.1,0.8,0.1c0.1,0,0.1,0.1,0.2,0.2
			c3.6,3.1,12.6,3.9,12.7,3.9c0.2,0,0.4,0.1,0.5,0.3c0.1,0.2,0.2,0.4,0.1,0.6c-1.2,4.1-0.6,5.6-0.1,6.2c0.5,0.4,1.1,0.6,1.7,0.5
			c0.2-0.1,0.5,0,0.7,0.2c0.2,0.2,0.3,0.4,0.2,0.7l-2.5,15.6c0,0.1,0,0.2-0.1,0.3c-2.1,3.1-5.4,5-9.1,5.3L399.3,254.1z M394.1,248.9
			c0.2,0.6,1.2,4.1,5.8,3.8c3.1-0.3,6-1.9,7.8-4.5l2.3-14.5c-0.8-0.1-1.6-0.4-2.1-1c-1.1-1.3-1.3-3.5-0.5-6.7
			c-2.3-0.3-8.1-1.1-11.7-3.5c-0.2,0.9-0.7,2.3-1.5,4.4c-1,2.6-1.8,5.2-2.5,7.9c0,3.4,2.4,4.2,2.8,4.3c0.2,0,0.3,0.1,0.5,0.2l0,0
			c0.2,0.2,0.2,0.4,0.2,0.7L394.1,248.9z"></path><path class="st0" d="M407.8,232c1-2.6,5.9-3.7,6.7-0.4c0.4,3.6-3.9,6.7-7,4.5"></path><path class="st1" d="M409.7,237.7c-1,0-1.9-0.3-2.7-0.9c-0.3-0.2-0.4-0.7-0.2-1c0.2-0.3,0.7-0.4,1-0.2c1.1,0.8,2.6,0.8,3.8,0.1
			c1.4-0.8,2.2-2.3,2.1-3.9c-0.2-0.8-0.9-1.4-1.8-1.4c-1.4-0.1-2.8,0.7-3.5,1.9c-0.1,0.4-0.6,0.6-1,0.4c0,0,0,0,0,0
			c-0.4-0.1-0.6-0.6-0.4-1c0,0,0,0,0,0c0.9-1.9,2.9-3,5-2.9c1.5,0,2.8,1.1,3.1,2.6c0,0,0,0.1,0,0.1c0.2,2.2-0.9,4.3-2.8,5.3
			C411.5,237.4,410.6,237.6,409.7,237.7z"></path><path class="st1" d="M393.8,244.9c2.1-0.1,4.2-0.8,5.9-2c2.8-1.9,2.8-3.3,2.8-3.3s-4.3,1.5-7.8,0.2L393.8,244.9L393.8,244.9z"></path><path class="st1" d="M393.8,245.6c-0.4,0-0.8-0.3-0.8-0.8l0,0c0,0,0-0.1,0-0.1l1-5.1c0-0.2,0.2-0.4,0.4-0.5
			c0.2-0.1,0.4-0.1,0.6-0.1c3.2,1.2,7.2-0.2,7.2-0.2c0.2-0.1,0.5-0.1,0.7,0.1c0.2,0.1,0.3,0.4,0.3,0.6c0,0.3-0.2,1.9-3.1,3.9
			C398.3,244.8,396.1,245.6,393.8,245.6L393.8,245.6z M395.3,240.8l-0.6,3.3c1.6-0.2,3.2-0.8,4.6-1.7c0.7-0.4,1.3-1,1.8-1.6
			C399.2,241.2,397.2,241.2,395.3,240.8L395.3,240.8z"></path><path class="st0" d="M399.2,227.7c0,0-3.7,3.7-3.2,4.6s2.5,0.8,2.5,0.8"></path><path class="st1" d="M398.3,233.8c-0.7,0-2.3-0.1-2.9-1.1c-0.2-0.3-0.8-1.4,3.3-5.5c0.3-0.3,0.8-0.3,1.1,0c0.3,0.3,0.3,0.8,0,1.1
			c-1.2,1.1-2.2,2.4-3,3.8c0.6,0.3,1.2,0.4,1.8,0.3c0.4,0,0.8,0.3,0.8,0.7c0,0.4-0.3,0.8-0.7,0.8l0,0L398.3,233.8z"></path><ellipse class="st1" transform="matrix(0.1113 -0.9938 0.9938 0.1113 131.2616 602.9575)" cx="402.8" cy="228.1" rx="1" ry="0.7"></ellipse><ellipse class="st1" transform="matrix(0.3992 -0.9169 0.9169 0.3992 29.4405 499.4139)" cx="395.8" cy="227.2" rx="1" ry="0.7"></ellipse><path class="st0" d="M396.4,235.7c0,0,0.6,0.8,3.3,0.6"></path><path class="st1" d="M399.1,237.1c-2.4,0-3.1-0.7-3.3-0.9c-0.2-0.3-0.2-0.8,0.1-1.1c0.3-0.2,0.7-0.2,1,0.1
			c0.8,0.4,1.8,0.6,2.7,0.4c0.4,0,0.8,0.3,0.8,0.7s-0.3,0.8-0.7,0.8H399.1z"></path><line class="st3" x1="437.5" y1="280.8" x2="416.2" y2="280.6"></line><path class="st1" d="M437.5,281.5L437.5,281.5l-21.3-0.2c-0.4,0-0.7-0.3-0.7-0.7c0,0,0,0,0,0c0-0.4,0.3-0.8,0.8-0.8l0,0l21.3,0.2
			c0.4,0,0.8,0.3,0.8,0.8S437.9,281.5,437.5,281.5L437.5,281.5z"></path></g></g><g id="character_1"><path class="st1" d="M198.3,335.8l-6.1-40.1l1.6-51.4l-20-1.6l0.2-1.5l-31.2-4.2c0,0-29.8,38.1-33.6,43.1s20,48.2,20,48.2l20.5-0.9
		c0,0-16.3-41.7-14.1-44.5s26.4-15.5,26.4-15.5l18.5,73.5L198.3,335.8z"></path><path class="st1" d="M180.6,341.6c-0.1,0-0.3,0-0.4-0.1c-0.2-0.1-0.3-0.3-0.4-0.5l-18.2-72.6c-9.7,5.1-23.8,13-25.3,14.9
		c-1,2.1,6.6,24.1,14.2,43.7c0.1,0.2,0.1,0.5-0.1,0.7c-0.1,0.2-0.3,0.3-0.6,0.3l-20.5,0.9c-0.3,0-0.6-0.1-0.7-0.4
		c-4-7.3-23.8-43.9-20-49c3.7-4.9,33.2-42.7,33.6-43.1c0.2-0.2,0.4-0.3,0.7-0.3l31.2,4.2c0.2,0,0.4,0.1,0.5,0.3
		c0.1,0.2,0.2,0.4,0.1,0.6l-0.1,0.7l19.1,1.5c0.4,0,0.7,0.4,0.7,0.8l-1.5,51.3l6,40.1c0,0.4-0.2,0.7-0.5,0.8l-17.7,5.1L180.6,341.6z
		 M162.1,266.6c0.1,0,0.2,0,0.3,0.1c0.2,0.1,0.4,0.3,0.4,0.5l18.3,72.8l16.3-4.7l-6-39.5c0,0,0-0.1,0-0.1L193,245l-19.2-1.5
		c-0.2,0-0.4-0.1-0.5-0.3c-0.1-0.2-0.2-0.4-0.1-0.6l0.1-0.7l-30-4c-3,3.8-29.8,38.1-33.3,42.7c-2.5,3.3,10.8,30.4,19.9,47l19-0.9
		c-4.2-10.9-15.8-41.4-13.6-44.2s24.1-14.4,26.6-15.7C161.9,266.7,162,266.7,162.1,266.6z"></path><ellipse class="st1" cx="65.2" cy="160.4" rx="3.4" ry="5.5"></ellipse><path class="st0" d="M176.4,143.8c-2.3-0.2-14.2-5.3-15.7,3c-0.6,3.2-1.4,6.4,0.9,8.9c1.2,1.2,2.6,2.4,4,3.4l3,2.2
		c3,2.3,7.4,4.5,11.3,3.3c5.1-1.5,7.1-11,3.8-14.6C184.8,145.3,178.6,144,176.4,143.8z"></path><path class="st1" d="M177.6,165.7c-3.5,0-7-2-9.5-3.8l-3-2.2c-1.5-1-2.9-2.2-4.1-3.5c-2.4-2.6-1.8-5.7-1.2-8.7l0.1-0.8
		c0.2-1.7,1.2-3.3,2.6-4.2c3.4-2.1,8.8-0.7,12,0.2c0.8,0.2,1.5,0.4,1.9,0.4l0,0c0.9,0.1,5.5,0.6,7.4,3.3c0.7,1,1,2.2,0.7,3.4
		c1.6,2.1,2,5.6,1,9.1c-1,3.3-3,5.7-5.4,6.5C179.3,165.5,178.5,165.7,177.6,165.7z M167,142.8c-1.3-0.1-2.6,0.2-3.7,0.9
		c-1.1,0.7-1.8,1.9-2,3.2l-0.1,0.8c-0.5,2.9-1,5.4,0.9,7.4c1.2,1.2,2.5,2.3,3.9,3.3l3,2.2c2.8,2.1,6.9,4.3,10.7,3.2
		c1.9-0.6,3.6-2.6,4.4-5.4c0.9-3.1,0.5-6.3-0.9-8c-0.2-0.2-0.2-0.4-0.2-0.7c0.3-0.9,0.1-1.8-0.4-2.6c-1.6-2.2-5.8-2.6-6.3-2.7l0,0
		c-0.7-0.1-1.4-0.3-2.1-0.5C171.8,143.3,169.4,142.9,167,142.8z"></path><path class="st1" d="M191.1,177.4c-5-4.1-15-4.6-26.3-5c-4.2,0-8.4,0.4-12.5,1.4c-9.9,3.3-22,10.9-22,10.9l10.6,16.6l3.9-1.6
		c0,0-2.3,18.1-4.1,41.7c0,0,20.7,4.7,53.1,2.9C193.8,244.3,194,179.2,191.1,177.4z"></path><path class="st1" d="M179.1,245.4c-23.7,0-38.4-3.2-38.6-3.3c-0.4-0.1-0.6-0.4-0.6-0.8c1.5-19.8,3.4-35.9,3.9-40.4l-2.7,1.1
		c-0.3,0.1-0.7,0-0.9-0.3l-10.6-16.6c-0.1-0.2-0.1-0.4-0.1-0.6c0.1-0.2,0.2-0.4,0.3-0.5c0.1-0.1,12.3-7.7,22.1-11
		c4.2-1,8.5-1.5,12.7-1.4c11.6,0.4,21.5,0.8,26.7,5.1c0.7,0.5,2.1,2,2.7,34.7c0.3,16.3,0.3,32.6,0.3,32.8c0,0.4-0.3,0.7-0.7,0.7
		C188.6,245.3,183.7,245.4,179.1,245.4z M193.8,244.3L193.8,244.3z M141.5,240.8c3.7,0.7,23.2,4.3,51.6,2.8
		c0-24.4-0.6-63.2-2.4-65.6l0,0l0,0c-4.8-4-15-4.4-25.9-4.8c-4.1,0-8.2,0.4-12.2,1.3c-8.4,2.8-18.5,8.8-21.1,10.4l9.8,15.4l3.3-1.3
		c0.4-0.1,0.8,0.1,1,0.5c0,0.1,0.1,0.2,0,0.3C145.5,200,143.2,217.8,141.5,240.8L141.5,240.8z"></path><polygon class="st0" points="160.9,179.4 161.1,205 161.3,218.9 166.5,204.8 176,178.9 	"></polygon><path class="st1" d="M161.3,219.6h-0.1c-0.4-0.1-0.6-0.4-0.6-0.7l-0.4-39.4c0-0.4,0.3-0.7,0.7-0.8l15.1-0.5c0.3,0,0.5,0.1,0.6,0.3
		c0.1,0.2,0.2,0.5,0.1,0.7L162,219.1C161.9,219.5,161.6,219.6,161.3,219.6z M161.6,180.2l0.4,34.6l12.9-35L161.6,180.2z"></path><polygon class="st1" points="161.1,205 161.3,218.9 166.5,204.8 166.5,188.6 168.1,186.6 166.1,183.5 163.3,186.4 165.1,188.5 	"></polygon><path class="st1" d="M161.3,219.6h-0.1c-0.4-0.1-0.6-0.4-0.6-0.7l-0.1-13.9c0-0.1,0-0.1,0-0.2l3.9-16.2l-1.6-1.8
		c-0.3-0.3-0.3-0.7,0-1l2.8-2.8c0.2-0.2,0.4-0.2,0.6-0.2c0.2,0,0.4,0.1,0.6,0.3l2,3c0.2,0.3,0.2,0.6,0,0.9l-1.4,1.8v16
		c0,0.1,0,0.2-0.1,0.3l-5.2,14.1C161.9,219.5,161.6,219.6,161.3,219.6z M161.9,205.1l0.1,9.7l3.7-10.1v-15.4L161.9,205.1z
		 M164.3,186.4l1.4,1.6c0.1,0.1,0.1,0.1,0.1,0.2c0,0,0-0.1,0.1-0.1l1.2-1.6l-1.2-1.8L164.3,186.4z"></path><path class="st0" d="M162,170.2l-1.2,9.2c0,0,0.9,4.9,6.6,4.5c3.4-0.3,6.5-2.1,8.5-5l2.5-15.6c0,0-3.7-2.8-1.1-11.5
		c-4.8,1.2-9.9,1.1-14.6-0.3c0,0-4.1,9.2-4.1,13.6S162,170.2,162,170.2L162,170.2z"></path><path class="st1" d="M166.8,184.7c-3.2,0.1-6-2-6.7-5.1c0-0.1,0-0.2,0-0.2l1.1-8.6c-2.2-1-3.5-3.2-3.4-5.6c0-4.5,4-13.5,4.1-13.9
		c0.2-0.3,0.5-0.5,0.9-0.4c4.6,1.4,9.5,1.5,14.2,0.3c0.4-0.1,0.8,0.1,0.9,0.5c0,0.1,0,0.3,0,0.4c-2.4,8,0.8,10.7,0.8,10.7
		c0.2,0.2,0.3,0.4,0.3,0.7l-2.5,15.6c0,0.1,0,0.2-0.1,0.3c-2.1,3.1-5.4,5-9.1,5.3L166.8,184.7z M161.6,179.4
		c0.2,0.7,1.2,4.1,5.8,3.8c3.1-0.3,6-1.9,7.8-4.5l2.4-15c-0.9-0.9-3.1-4.1-1.4-10.8c-4.4,0.8-8.9,0.7-13.1-0.5
		c-0.9,2.1-3.8,9.1-3.8,12.7s2.4,4.2,2.8,4.3c0.1,0,0.3,0.1,0.4,0.2l0,0c0.2,0.2,0.3,0.5,0.2,0.7L161.6,179.4z"></path><path class="st0" d="M175.3,162.6c1-2.6,5.9-3.7,6.7-0.4c0.4,3.6-3.9,6.7-7,4.5"></path><path class="st1" d="M177.2,168.2c-1,0-1.9-0.3-2.7-0.9c-0.3-0.2-0.4-0.7-0.2-1c0.2-0.3,0.7-0.4,1-0.2c1.1,0.8,2.6,0.8,3.8,0.1
		c1.4-0.8,2.2-2.3,2.1-3.9c-0.2-0.8-0.9-1.4-1.8-1.4c-1.4-0.1-2.8,0.7-3.5,1.9c-0.1,0.4-0.6,0.6-0.9,0.4c0,0,0,0-0.1,0
		c-0.4-0.1-0.6-0.6-0.4-0.9c0,0,0,0,0-0.1c0.9-1.9,2.9-3,5-2.9c1.5,0,2.8,1.1,3.1,2.6c0,0,0,0.1,0,0.1c0.2,2.2-0.9,4.3-2.8,5.3
		C179,167.9,178.1,168.2,177.2,168.2z"></path><path class="st1" d="M161.3,175.5c2.1-0.1,4.2-0.8,5.9-2c2.8-1.9,2.8-3.3,2.8-3.3s-4.3,1.5-7.8,0.2L161.3,175.5L161.3,175.5z"></path><path class="st1" d="M161.3,176.2c-0.4,0-0.8-0.3-0.8-0.8l0,0c0,0,0-0.1,0-0.1l1-5.1c0-0.2,0.2-0.4,0.4-0.5
		c0.2-0.1,0.4-0.1,0.6-0.1c3.2,1.2,7.2-0.2,7.2-0.2c0.2-0.1,0.5-0.1,0.7,0.1c0.2,0.1,0.3,0.4,0.3,0.6c0,0.3-0.2,1.9-3.1,4
		C165.7,175.4,163.5,176.1,161.3,176.2z M162.8,171.3l-0.6,3.3c1.6-0.2,3.2-0.8,4.6-1.7c0.7-0.4,1.3-1,1.8-1.6
		C166.7,171.7,164.7,171.8,162.8,171.3z"></path><path class="st0" d="M168.1,158c0,0-3.7,3.7-3.2,4.6s2.5,0.8,2.5,0.8"></path><path class="st1" d="M167.2,164.1c-0.7,0-2.3-0.1-2.9-1.1c-0.2-0.3-0.8-1.4,3.3-5.5c0.3-0.3,0.8-0.3,1.1,0c0.3,0.3,0.3,0.8,0,1.1
		c0,0,0,0,0,0c-1.2,1.1-2.2,2.4-3,3.8c0.6,0.3,1.2,0.4,1.8,0.3c0.4,0,0.8,0.3,0.8,0.7c0,0,0,0,0,0c0,0.4-0.3,0.8-0.7,0.8
		L167.2,164.1z"></path><ellipse class="st1" transform="matrix(0.1113 -0.9938 0.9938 0.1113 -4.8166 311.2694)" cx="171.6" cy="158.3" rx="1" ry="0.7"></ellipse><ellipse class="st1" transform="matrix(0.3992 -0.9169 0.9169 0.3992 -44.8955 245.522)" cx="164.9" cy="157" rx="1" ry="0.7"></ellipse><path class="st0" d="M139.8,197.9c0,0-20.3,9.5-27,6.4c-4.4-2-10.9-21.6-12-24.6c-0.4-1.3-0.9-2.6-1.4-3.9c-1.1-1.7-2.3-3.4-3.6-5
		c-1.3-1.7-2.2-3.7-2.6-5.9c-0.2-0.8-0.1-1.7,0.3-2.5c1-1.9,5.2-1.8,6.9-0.9c1.9,0.9,7.5,9.3,9.3,10.4c2.7,5.8,5.8,11.4,9.3,16.9
		c6.4-2.2,12.5-4.7,12.5-4.7"></path><path class="st1" d="M116.3,205.6c-1.3,0.1-2.6-0.2-3.8-0.7c-2.9-1.4-6.9-9.2-12.1-24.1l-0.3-0.9c-0.2-0.4-0.3-0.9-0.4-1.3
		c-0.3-0.9-0.6-1.7-1-2.5c-0.6-1.1-1.4-2.2-2.2-3.1c-0.5-0.6-0.9-1.2-1.3-1.8c-1.4-1.8-2.3-3.9-2.7-6.2c-0.2-1-0.1-2.1,0.4-3
		c1.3-2.4,6-2.2,7.9-1.3c1,0.5,2.6,2.4,5.1,5.6c1.6,2,3.5,4.4,4.3,4.8c0.1,0.1,0.2,0.2,0.3,0.3c2.7,5.6,5.6,11,8.9,16.3
		c6.1-2.1,11.8-4.5,11.9-4.5c0.4-0.2,0.8,0,1,0.4c0,0,0,0,0,0c0.2,0.4,0,0.8-0.4,1c0,0,0,0,0,0c-0.1,0-6.2,2.6-12.6,4.7
		c-0.3,0.1-0.7,0-0.9-0.3c-3.4-5.4-6.5-11-9.2-16.8c-1-0.7-2.3-2.4-4.5-5c-1.7-2.1-3.8-4.7-4.6-5.1c-1.5-0.8-5.2-0.7-5.9,0.6
		c-0.3,0.6-0.4,1.3-0.2,2c0.4,2,1.2,3.9,2.5,5.5c0.4,0.6,0.8,1.1,1.3,1.7c0.9,1.1,1.7,2.2,2.3,3.4c0.4,0.9,0.7,1.8,1,2.7
		c0.1,0.4,0.3,0.9,0.4,1.3l0.3,0.9c6.2,17.7,9.6,22.4,11.3,23.2c6.2,2.9,26.1-6.3,26.3-6.4c0.4-0.2,0.8,0,1,0.3c0,0,0,0,0,0
		c0.2,0.4,0,0.8-0.3,1c0,0,0,0,0,0C139.4,198.9,124.9,205.6,116.3,205.6z"></path><polyline class="st1" points="180,181.3 161.5,192.1 171.6,211.4 184,203.5 	"></polyline><path class="st1" d="M171.6,212.1c-0.1,0-0.1,0-0.2,0c-0.2-0.1-0.4-0.2-0.5-0.4l-10.1-19.2c-0.2-0.4-0.1-0.8,0.3-1l18.5-10.9
		c0.4-0.2,0.8-0.1,1,0.3s0.1,0.8-0.3,1l-17.9,10.5l9.4,17.9l11.7-7.5c0.3-0.2,0.8-0.2,1,0.2c0.2,0.3,0.2,0.8-0.2,1c0,0,0,0-0.1,0
		L172,212C171.9,212.1,171.7,212.1,171.6,212.1z"></path><polygon class="st0" points="152.5,158 65.3,153.6 65.3,167.2 152.5,162.9 	"></polygon><path class="st1" d="M65.3,168c-0.2,0-0.4-0.1-0.5-0.2c-0.1-0.1-0.2-0.3-0.2-0.5v-13.6c0-0.4,0.3-0.8,0.7-0.8c0,0,0,0,0,0l87.2,4.4
		c0.4,0,0.7,0.4,0.7,0.8v4.8c0,0.4-0.3,0.7-0.7,0.8L65.3,168L65.3,168z M66,154.4v12l85.7-4.3v-3.4L66,154.4z"></path><path class="st0" d="M173,207.8c0,0-18.9,11.4-26.3,8.9S129,171.3,129,171.3s-4.5-8.7-3.2-11.1s9.9-9.2,10.7-7.1s1.2,11,1.2,11
		s6.2-1,6.1-0.9s-3.4,6.2-3.4,6.2l12.6,28.9l13.7-6"></path><path class="st1" d="M149.1,217.8c-0.9,0-1.8-0.1-2.6-0.4c-7.5-2.5-17.1-41.1-18.2-45.9c-0.9-1.7-4.6-9.2-3.1-11.7
		c1.2-2.2,8.1-8,10.8-7.9c0.6,0,1,0.4,1.2,0.9c0.7,1.9,1.1,8.1,1.2,10.4c5.8-0.9,5.8-0.9,6-0.4c0.1,0.3,0.1,0.6-0.1,0.8
		c-0.2,0.4-2,3.6-3.2,5.8l12.1,27.8l13-5.7c0.4-0.2,0.8,0,1,0.4c0.2,0.4,0,0.8-0.4,1c0,0,0,0,0,0l-13.7,6c-0.4,0.2-0.8,0-1-0.4
		l-12.6-28.9c-0.1-0.2-0.1-0.4,0-0.6c1.3-2.5,2.2-4,2.7-4.9l-4.5,0.7c-0.2,0-0.4,0-0.6-0.2c-0.2-0.1-0.3-0.3-0.3-0.6
		c-0.1-2.4-0.5-9-1.1-10.7c-1.4-0.2-8.1,4.9-9.3,7.1c-0.8,1.4,1.4,6.9,3.2,10.4c0,0.1,0.1,0.1,0.1,0.2c2.9,11.8,11.5,43,17.3,44.9
		c7,2.3,25.5-8.8,25.7-8.9c0.4-0.2,0.8-0.1,1,0.3s0.1,0.8-0.3,1C172.7,208.9,157.7,217.8,149.1,217.8z"></path><path class="st0" d="M174.1,210.7c-0.1,0-0.2,0-0.2,0c-0.2-0.1-0.4-0.2-0.5-0.4l-3-7.1c-0.2-0.4,0-0.8,0.3-1c0.4-0.2,0.8,0,1,0.3
		c0,0,0,0.1,0,0.1l2.7,6.3l14.9-8.9c0.3-0.2,0.8-0.1,1,0.2c0.2,0.3,0.1,0.8-0.2,1c0,0,0,0,0,0l-15.6,9.4
		C174.4,210.7,174.2,210.7,174.1,210.7z"></path><line class="st3" x1="164.2" y1="166.1" x2="169.5" y2="166.8"></line><path class="st1" d="M169.5,167.5h-0.1l-5.3-0.7c-0.4-0.1-0.7-0.4-0.6-0.8s0.4-0.7,0.8-0.6l5.3,0.7c0.4,0.1,0.7,0.4,0.6,0.8
		c0,0,0,0,0,0C170.2,167.2,169.9,167.5,169.5,167.5z"></path><path class="st1" d="M90.3,166.3c-0.4,0-0.8-0.3-0.8-0.8V156c0-0.4,0.3-0.8,0.8-0.8s0.8,0.3,0.8,0.8v9.5
		C91.1,165.9,90.8,166.3,90.3,166.3z"></path><path class="st1" d="M113.1,165.5c-0.4,0-0.8-0.3-0.8-0.8v-8.2c0-0.4,0.3-0.8,0.8-0.8s0.8,0.3,0.8,0.8v8.2
		C113.8,165.2,113.5,165.5,113.1,165.5z"></path><path class="st1" d="M144.1,163.9c-0.4,0-0.7-0.3-0.8-0.8v-5.1c0-0.4,0.3-0.8,0.8-0.8s0.8,0.3,0.8,0.8v5.1
		C144.8,163.6,144.5,163.9,144.1,163.9z"></path><path class="st0" d="M194.7,252.2L194.7,252.2c-26.4-0.7-54-9.9-54.3-10c-0.4-0.1-0.6-0.5-0.5-0.9c0,0,0,0,0-0.1
		c0.1-0.4,0.6-0.6,0.9-0.5c0.3,0.1,27.7,9.3,53.8,10c0.4,0,0.8,0.3,0.8,0.8S195.2,252.2,194.7,252.2L194.7,252.2z"></path><path class="st0" d="M186.8,271.6c-0.2,0-0.3-0.1-0.5-0.2c-6.3-5-6.3-13.3-6.3-13.6c0-0.4,0.3-0.7,0.8-0.8l0,0
		c0.4,0,0.8,0.3,0.8,0.8c0,0.1,0.1,7.9,5.8,12.5c0.3,0.3,0.3,0.7,0.1,1C187.2,271.4,187,271.6,186.8,271.6z"></path></g><g id="boat"><path class="st0" d="M47.4,293.4c0,0,21.4,44.6,42.1,69.3c24.2,28.9,65.2,34.9,65.2,34.9s244.4-5.8,253.4-8.3
		c26.4-7.3,47.4-56.2,47.4-56.2C304.5,307.7,47.4,293.4,47.4,293.4z"></path><path class="st1" d="M154.7,398.3h-0.1c-0.4-0.1-41.5-6.4-65.7-35.1c-20.5-24.5-42-69-42.2-69.4c-0.1-0.2-0.1-0.5,0-0.7
		c0.1-0.2,0.4-0.3,0.7-0.3c2.6,0.1,258.9,14.5,408.2,39.7c0.2,0,0.4,0.2,0.5,0.4c0.1,0.2,0.1,0.4,0,0.6c-0.9,2-21.5,49.3-47.9,56.6
		C399.2,392.5,164.6,398.1,154.7,398.3L154.7,398.3z M48.7,294.2c3.5,7.1,22.9,45.8,41.4,68c23.3,27.8,62.9,34.3,64.7,34.6
		c5.1-0.1,244.4-5.8,253.2-8.3c23.8-6.6,43.5-48.3,46.5-54.9C310.5,309.6,68.4,295.4,48.7,294.2L48.7,294.2z"></path><path class="st1" d="M446.4,351.5h-0.1c-106.6-18.1-376.1-34.6-387.5-35.3c-0.4,0-0.7-0.4-0.7-0.8c0-0.4,0.4-0.7,0.8-0.7
		c11.4,0.7,281,17.2,387.6,35.3c0.4,0.1,0.7,0.4,0.6,0.8c0,0,0,0,0,0C447,351.3,446.7,351.5,446.4,351.5z"></path><path class="st1" d="M431.4,373h-0.1c-100.5-15.1-299.4-28.4-358-32.1c-0.4,0-0.7-0.4-0.7-0.8c0-0.4,0.4-0.7,0.8-0.7
		c58.6,3.7,257.6,17,358.1,32.1c0.4,0.1,0.7,0.5,0.6,0.9C432.1,372.7,431.8,373,431.4,373L431.4,373z"></path><path class="st1" d="M393.3,391.4L393.3,391.4C292.5,379.5,148.8,369.7,91.7,366c-0.4,0-0.7-0.4-0.7-0.8c0-0.4,0.4-0.7,0.8-0.7
		c57.1,3.7,200.8,13.5,301.6,25.3l0,0c0.2,0,0.4,0.1,0.5,0.2c0.3,0.3,0.3,0.8,0,1.1C393.7,391.3,393.5,391.3,393.3,391.4
		L393.3,391.4z"></path></g><g id="wave_front"><path class="st0" d="M455.5,378.5v40.6H57.8v-40.6c14.2,0,14.2,7.6,28.4,7.6s14.2-7.6,28.4-7.6s14.2,7.6,28.4,7.6
		s14.2-7.6,28.4-7.6s14.2,7.6,28.4,7.6s14.2-7.6,28.4-7.6s14.2,7.6,28.4,7.6s14.2-7.6,28.4-7.6s14.2,7.6,28.4,7.6s14.2-7.6,28.4-7.6
		s14.2,7.6,28.4,7.6s14.2-7.6,28.4-7.6s14.2,7.6,28.4,7.6S441.3,378.5,455.5,378.5z"></path><path class="st1" d="M427.1,387c-7.3,0-11-2.1-14.6-4.1s-6.9-3.9-13.8-3.9s-10.3,1.9-13.8,3.9s-7.3,4.1-14.6,4.1s-11-2.1-14.6-4.1
		s-6.9-3.9-13.8-3.9s-10.3,1.9-13.8,3.9s-7.3,4.1-14.6,4.1s-11-2.1-14.6-4.1s-6.9-3.9-13.9-3.9s-10.3,1.9-13.8,3.9
		s-7.3,4.1-14.6,4.1s-11-2.1-14.6-4.1s-6.9-3.9-13.8-3.9s-10.3,1.9-13.8,3.9s-7.3,4.1-14.6,4.1s-11-2.1-14.6-4.1s-6.9-3.9-13.8-3.9
		s-10.3,1.9-13.8,3.9s-7.2,4.1-14.5,4.1s-11-2.1-14.6-4.1s-6.9-3.9-13.8-3.9s-10.3,1.9-13.8,3.9s-7.3,4.1-14.6,4.1s-11-2.1-14.6-4.1
		s-6.9-3.9-13.8-3.9c-0.4,0-0.8-0.3-0.8-0.8s0.3-0.8,0.8-0.8c7.3,0,11,2.1,14.6,4.1s6.9,3.9,13.8,3.9s10.3-1.9,13.8-3.9
		s7.3-4.1,14.6-4.1s11,2.1,14.6,4.1c3.6,2,6.9,3.9,13.8,3.9s10.3-1.9,13.8-3.9s7.3-4.1,14.6-4.1s11,2.1,14.6,4.1s6.9,3.9,13.8,3.9
		s10.3-1.9,13.8-3.9s7.3-4.1,14.6-4.1s11,2.1,14.6,4.1s6.9,3.9,13.8,3.9s10.3-1.9,13.8-3.9s7.3-4.1,14.6-4.1s11,2.1,14.6,4.1
		s6.9,3.9,13.8,3.9s10.3-1.9,13.8-3.9s7.3-4.1,14.6-4.1s11,2.1,14.6,4.1s6.9,3.9,13.8,3.9s10.3-1.9,13.8-3.9s7.3-4.1,14.6-4.1
		s11,2.1,14.6,4.1s6.9,3.9,13.8,3.9s10.3-1.9,13.8-3.9s7.3-4.1,14.6-4.1c0.4,0,0.8,0.3,0.8,0.8s-0.3,0.8-0.8,0.8
		c-6.9,0-10.3,1.9-13.8,3.9S434.4,387,427.1,387z"></path></g><g id="paddle_2"><path class="st0" d="M305.9,236.5l138.6,127.3l3.3-0.9L309.4,232.8c-1-1-2.7-0.9-3.6,0.1c-0.1,0.1-0.2,0.2-0.3,0.4l0,0
		C304.8,234.3,305,235.7,305.9,236.5z"></path><path class="st1" d="M444.6,364.6c-0.2,0-0.4-0.1-0.5-0.2L305.4,237.1l0,0c-1.2-1.1-1.4-2.9-0.5-4.2c0.5-0.8,1.4-1.4,2.4-1.5
		c1-0.1,2,0.2,2.7,0.9l138.5,130.2c0.2,0.2,0.3,0.5,0.2,0.7c-0.1,0.3-0.3,0.5-0.5,0.5l-3.4,0.9L444.6,364.6z M306.4,236l138.3,127
		l1.6-0.4L308.9,233.3c-0.7-0.7-1.9-0.7-2.6,0.1c-0.1,0.1-0.1,0.2-0.2,0.3C305.6,234.4,305.8,235.4,306.4,236L306.4,236z"></path><path class="st0" d="M441.2,344.3l-11.5-2.5c-3.1-0.7-6.2,1.3-6.8,4.4c-0.2,0.9-0.2,1.9,0.1,2.8l3.1,11.1c0.3,1,0.8,1.9,1.6,2.6
		l23.3,22.3c2.3,2.2,5.9,2.1,8.1-0.2c0,0,0,0,0,0l8.3-8.7c2.2-2.3,2.1-5.9-0.2-8.1c0,0,0,0,0,0L444,345.8
		C443.2,345.1,442.2,344.6,441.2,344.3z"></path><path class="st1" d="M455,387.4c-1.7,0-3.3-0.6-4.5-1.8l-23.3-22.2c-0.8-0.8-1.4-1.8-1.8-2.9l-3.1-11.1c-1-3.5,1-7.1,4.5-8
		c1-0.3,2.1-0.3,3.1-0.1l11.5,2.5c1.2,0.3,2.3,0.8,3.1,1.7l23.3,22.2c2.6,2.5,2.7,6.6,0.2,9.2l-8.3,8.7c-1.2,1.2-2.8,2-4.6,2
		L455,387.4z M428.5,342.5c-2.8,0-5,2.2-5,5c0,0.5,0.1,0.9,0.2,1.4l3.1,11.1c0.2,0.9,0.7,1.6,1.4,2.3l23.3,22.2
		c1,0.9,2.2,1.4,3.6,1.4c1.3,0,2.6-0.6,3.5-1.5l8.3-8.7c1.9-2,1.8-5.2-0.2-7.1c0,0,0,0,0,0l-23.3-22.2c-0.7-0.6-1.5-1.1-2.4-1.3l0,0
		l-11.5-2.5C429.2,342.5,428.8,342.5,428.5,342.5L428.5,342.5z"></path><path class="st0" d="M418.4,280.6l3.7,14.1l-25.6,12.2c0,0-5.7-2.7-5.8-2.8s1.2,4.6,1.2,4.6s-7.5-0.6-9.7,0s3.7,9.8,5.9,11.4
		s11.4-2,11.4-2s31.5-9.1,34.7-16.2s-1.5-21.1-1.5-21.1L418.4,280.6z"></path><path class="st1" d="M390,321.1c-0.8,0.1-1.6-0.1-2.2-0.5c-2-1.4-7.1-8.9-6.7-11.5c0.1-0.6,0.5-1,1-1.2c1.8-0.5,6.7-0.2,8.9-0.1
		c-1.2-4.1-1.1-4.1-0.5-4.4c0.2-0.1,0.5-0.1,0.8,0.1c0.4,0.2,3.4,1.6,5.4,2.5l24.7-11.7l-3.6-13.5c-0.1-0.4,0.2-0.8,0.6-0.9
		c0,0,0.1,0,0.1,0h14.3c0.3,0,0.6,0.2,0.7,0.5c0.2,0.6,4.8,14.4,1.5,21.7c-1.4,3.1-7.8,6.9-19,11.2c-8.2,3.1-16.1,5.5-16.2,5.5
		C398.5,319.1,393.3,321.1,390,321.1z M382.5,309.3c-0.4,1.4,4,8.6,6.1,10c1.3,0.9,7-0.7,10.7-2.1c8.7-2.5,31.8-10.3,34.3-15.8
		c2.7-6-0.6-17.5-1.4-20.1h-12.8l3.5,13.2c0.1,0.3-0.1,0.7-0.4,0.9l-25.6,12.1c-0.2,0.1-0.4,0.1-0.6,0l-4.4-2
		c0.2,0.9,0.6,2.1,0.8,2.9c0.1,0.2,0,0.5-0.1,0.7c-0.2,0.2-0.4,0.3-0.6,0.3C389.9,309.2,384.3,308.9,382.5,309.3L382.5,309.3z"></path><path class="st0" d="M338.3,256.6c-1.9-2.6-4.7-4.3-7.9-4.9c-0.4-0.1-0.7-0.1-1.1,0c-1.1,0.4-2.1,0.9-3.1,1.6
		c-1.3,1-1.8,2.7-1.4,4.2c0.3,0.7,1.1,1.1,1.9,0.8c0.4-0.1,0.7-0.4,0.8-0.8c0.7-1.4,2.4-1.4,3.8-1.5c0,0,0.6,3,2.2,4
		c2.2,1.4,5.5,1,6,1"></path><path class="st1" d="M338.2,261.9c-1.7,0.1-3.5-0.3-5-1.2c-1.2-1-2-2.4-2.4-3.9c-1.3,0.1-2.1,0.2-2.5,1c-0.4,0.8-1.3,1.3-2.2,1.3
		c-0.9,0-1.6-0.6-1.8-1.4c-0.5-1.8,0.1-3.8,1.6-5c1.1-0.7,2.2-1.3,3.4-1.7c0.5-0.1,0.9-0.1,1.4,0c3.3,0.6,6.3,2.5,8.4,5.2
		c0.2,0.3,0.2,0.8-0.2,1c0,0,0,0,0,0c-0.3,0.2-0.8,0.2-1-0.2c-1.8-2.4-4.4-4-7.4-4.6c-0.3-0.1-0.5-0.1-0.8,0c-1,0.4-1.9,0.9-2.8,1.4
		c-1.1,0.8-1.5,2.2-1.1,3.4c0.1,0.2,0.3,0.4,0.5,0.4c0.3,0,0.6-0.2,0.8-0.5c0.9-1.7,2.7-1.8,4.2-1.9h0.3c0.3,0,0.6,0.2,0.7,0.4
		c0,0.1,0.1,0.2,0.1,0.3c0.1,0.4,0.7,2.7,1.9,3.4c1.7,1.1,4.2,1,5.2,0.9h0.4c0.4,0,0.7,0.4,0.7,0.8s-0.4,0.7-0.8,0.7h-0.3
		C339,261.9,338.6,261.9,338.2,261.9z"></path></g><g id="paddle_1"><path class="st0" d="M221.8,204.7l48.8,181.8l3.3,1l-47.2-184.1c-0.4-1.4-1.8-2.2-3.1-1.9c-0.2,0-0.3,0.1-0.5,0.2l0,0
		C222.1,202.2,221.5,203.5,221.8,204.7z"></path><path class="st1" d="M274,388.3c-0.1,0-0.2,0-0.2,0l-3.3-1c-0.2-0.1-0.4-0.3-0.5-0.5l-48.9-181.9l0,0c-0.5-1.8,0.6-3.6,2.4-4.1
		s3.6,0.6,4.1,2.4l47.2,184.1c0.1,0.3,0,0.5-0.2,0.7C274.3,388.2,274.2,388.3,274,388.3z M271.3,385.9l1.6,0.5l-46.9-182.8
		c-0.2-1-1.2-1.6-2.2-1.3c-0.1,0-0.2,0.1-0.3,0.1c-0.8,0.4-1.2,1.3-1,2.1L271.3,385.9z"></path><path class="st0" d="M278.2,368.2l-8.4-8.2c-2.3-2.2-5.9-2.2-8.1,0.1c-0.7,0.7-1.1,1.5-1.4,2.4l-3.3,11.1c-0.3,1-0.3,2-0.1,3
		l7.8,31.3c0.8,3.1,3.9,5,7,4.2l11.7-2.9c3.1-0.8,5-3.9,4.2-7c0,0,0,0,0,0l-7.8-31.1C279.5,369.9,279,369,278.2,368.2z"></path><path class="st1" d="M270.3,413c-3,0-5.6-2.1-6.3-5l-7.8-31.3c-0.3-1.1-0.3-2.3,0.1-3.4l3.3-11.1c1-3.4,4.7-5.4,8.1-4.4
		c1,0.3,1.9,0.8,2.7,1.6l8.4,8.2c0.9,0.8,1.5,1.9,1.8,3.1l7.8,31.3c0.9,3.5-1.3,7-4.8,7.9l-11.7,2.9
		C271.4,412.9,270.8,413,270.3,413z M265.8,359.1c-0.4,0-0.9,0.1-1.3,0.2c-1.7,0.4-3,1.7-3.5,3.4l-3.3,11.1
		c-0.3,0.9-0.3,1.8-0.1,2.6l7.8,31.3c0.7,2.7,3.4,4.3,6,3.7c0,0,0,0,0,0l11.7-2.9c2.7-0.7,4.3-3.4,3.7-6c0,0,0,0,0,0l-7.8-31.2
		c-0.2-0.9-0.7-1.7-1.4-2.4l0,0l-8.4-8.2C268.4,359.6,267.1,359.1,265.8,359.1L265.8,359.1z"></path><path class="st0" d="M219.7,230.1l-0.9-11c0,0,0.5-9.6,2.6-12.7s10.2,10.2,10.6,13.2s-4.5,8.5-2.9,13"></path><path class="st1" d="M229,233.4c-0.3,0-0.6-0.2-0.7-0.5c-1-3,0.4-6.2,1.6-9c0.7-1.7,1.4-3.2,1.3-4.2c-0.3-2.5-6.3-12.3-8.8-13
		c-0.2-0.1-0.3,0-0.4,0.1c-1.7,2.4-2.4,9.7-2.5,12.3l0.9,10.9c0,0.4-0.3,0.8-0.7,0.8c-0.4,0-0.7-0.3-0.7-0.6l-0.9-11
		c0-0.5,0.5-10,2.8-13.2c0.4-0.7,1.2-0.9,2-0.7c3.4,0.9,9.6,11.4,9.9,14.3c0.1,1.4-0.6,3.1-1.4,5c-1.1,2.6-2.4,5.5-1.6,7.9
		c0.2,0.4-0.1,0.8-0.4,1c0,0,0,0,0,0C229.2,233.4,229.1,233.4,229,233.4z"></path><path class="st0" d="M287.5,263.7l-1.4,18.2l-33.8,1c0,0-4.8-4.1-4.9-4.2s0,4.7,0,4.7s-7.1-2.6-9.4-2.6s1,10.4,2.7,12.5
		s11.5,1,11.5,1s43.8,5.9,48.8-0.1s2.9-34.1,2.9-34.1L287.5,263.7z"></path><path class="st1" d="M285.6,297.7c-13.3,0-30.1-2.2-33.3-2.6c-1.9,0.2-10.2,0.9-12.1-1.3c-1.6-1.9-4.5-10.5-3.4-12.9
		c0.2-0.5,0.7-0.9,1.3-0.9c1.9,0,6.5,1.5,8.6,2.3c0-4.3,0-4.3,0.6-4.4c0.3,0,0.5,0.1,0.7,0.3c0.3,0.3,2.9,2.5,4.6,3.9l32.8-1
		l1.3-17.5c0-0.3,0.3-0.6,0.6-0.7l16.5-3.6c0.4-0.1,0.8,0.2,0.9,0.6c0,0,0,0.1,0,0.1c0.1,1.2,2.1,28.5-3,34.7
		C299.9,297,293.3,297.7,285.6,297.7z M252.3,293.6h0.1c12.1,1.6,44.3,4.8,48.1,0.1c4.2-5.1,3-28,2.7-32.7l-15.1,3.3l-1.3,17.7
		c0,0.4-0.3,0.7-0.7,0.7l-33.8,1c-0.2,0-0.4-0.1-0.5-0.2c-1.8-1.5-2.9-2.5-3.6-3.1c0,1,0,2.2,0,3c0,0.2-0.1,0.5-0.3,0.6
		c-0.2,0.1-0.5,0.2-0.7,0.1c-1.9-0.7-7.2-2.5-9-2.6c-0.7,1.2,1.6,9.4,3.2,11.3C242.4,294.1,248.4,294.1,252.3,293.6L252.3,293.6z
		 M286.1,281.9L286.1,281.9z"></path></g></svg>