<svg transform="scale(1)" version="1.1" id="ZKNE54Byzr" xmlns="http://www.w3.org/2000/svg" xmlns:xlink="http://www.w3.org/1999/xlink" x="0px" y="0px" viewBox="0 0 500 500" xml:space="preserve" class="pbimage_pbimage__wrapper__image__0LEis false"><title>Collaboration</title><style type="text/css"> .st0{fill:#FFFFFF;} .st1{fill:#241F20;} .st2{fill:none;} .st3{fill:#61E0FA;} .st4{fill:#D1D3D4;}
 .st4{fill:#D1D3D4;}
 .st3{fill:#61E0FA;}
 .st1{fill:#241F20;}
 .st0{fill:#FFFFFF;}</style><g id="Hands"><path class="st0" d="M314.1,409.5l-82.6,13.7l-5.2-61.4l-1.3-16.1l-1.2-13.9c0,0-5.9-2.4-19.6-6.8s-52.3-33.2-44-41
		s53.3,15.6,53.3,15.6l-35.2-50.8l121.2-18.1l-17.1,86l5.6,16.2l5,14.6L314.1,409.5z" fill="#FFFFFF"></path><path class="st1" d="M231.6,423.9c-0.2,0-0.3-0.1-0.5-0.2c-0.2-0.1-0.3-0.3-0.3-0.5l-7.8-90.9c-1.6-0.6-7.6-3-19.1-6.6
		s-42.9-26-45.5-37.5c-0.5-1.7-0.1-3.6,1.2-4.8c7.5-7,41.6,9.2,51.5,14.2l-33.5-48.4c-0.1-0.2-0.2-0.5-0.1-0.7
		c0.1-0.2,0.3-0.4,0.6-0.4l121.2-18.1c0.2,0,0.5,0,0.6,0.2c0.2,0.2,0.2,0.4,0.2,0.7l-17.1,85.8l31.7,92.6c0.1,0.2,0,0.4-0.1,0.6
		c-0.1,0.2-0.3,0.3-0.5,0.4l-82.6,13.7L231.6,423.9z M165.8,283c-2.2,0-4,0.4-5,1.4c-0.9,0.9-1.2,2.2-0.8,3.4
		c2.3,10.2,32.2,32.5,44.5,36.4c13.6,4.4,19.6,6.8,19.6,6.9c0.3,0.1,0.4,0.3,0.5,0.6l7.7,90.6l80.9-13.4l-31.5-92c0-0.1,0-0.3,0-0.4
		l16.9-84.9l-119,17.8l34.5,49.8c0.3,0.3,0.2,0.8-0.1,1.1c-0.3,0.2-0.6,0.2-0.9,0C202.8,294.8,177.4,283,165.8,283z" fill="#241F20"></path><path class="st0" d="M430.4,259.7l-24,65.5l-71.8-36.6c0,0-44.1,16.1-55.4,15.1s-47.1,0.6-46.6-6.2s20.5-10.4,42.3-13.7l15-12
		L215,245.1l26.4-64l95.9,51c0,0,9.5-0.6,11.4,7.5L430.4,259.7z" fill="#FFFFFF"></path><path class="st1" d="M406.5,325.9c-0.1,0-0.2,0-0.3-0.1l-71.5-36.5c-4.3,1.5-44.4,16-55.4,15.1c-2.8-0.2-7.1-0.3-12.1-0.4
		c-13.7-0.2-30.8-0.6-34.4-4.5c-0.5-0.5-0.8-1.3-0.8-2.1c0.5-7.4,19.7-10.9,42.8-14.3l13.8-11.1l-73.8-26.3
		c-0.2-0.1-0.3-0.2-0.4-0.4c-0.1-0.2-0.1-0.4,0-0.6l26.4-64c0.1-0.2,0.2-0.4,0.4-0.4c0.2-0.1,0.4-0.1,0.6,0l95.8,50.9
		c1.5-0.1,9.7,0.1,11.8,7.6l81.3,20.2c0.4,0.1,0.6,0.5,0.5,0.9c0,0,0,0.1,0,0.1l-23.9,65.4c-0.1,0.2-0.2,0.4-0.4,0.4
		C406.7,325.9,406.6,325.9,406.5,325.9z M334.7,287.8c0.1,0,0.2,0,0.3,0.1l71.1,36.3l23.4-63.9l-80.9-20c-0.3-0.1-0.5-0.3-0.5-0.6
		c-1.8-7.4-10.3-6.9-10.6-6.9c-0.1,0-0.3,0-0.4-0.1l-95.2-50.6L216,244.6l74.3,26.4c0.3,0.1,0.4,0.3,0.5,0.6c0,0.3-0.1,0.5-0.3,0.7
		l-15,12c-0.1,0.1-0.2,0.1-0.4,0.2c-15.4,2.3-41.2,6.1-41.7,13c0,0.4,0.1,0.7,0.4,1c3.1,3.5,21.3,3.8,33.3,4c5,0.1,9.3,0.2,12.2,0.4
		c10.9,0.9,54.6-15,55-15.1C334.5,287.8,334.6,287.8,334.7,287.8L334.7,287.8z" fill="#241F20"></path><path class="st0" d="M305.8,141.5l-17.1,12.2l-81.6,21.5l49.4,89.4l43-31.8c0,0-2.9,40.6,8.3,40.6s22-80.6,22-80.6l13.2-17.6
		L305.8,141.5z" fill="#FFFFFF"></path><path class="st1" d="M307.8,274.1c-1.6,0-3-0.7-4-1.9c-6.4-6.8-5.5-31.2-5.1-37.9l-41.7,30.8c-0.2,0.1-0.4,0.2-0.6,0.1
		c-0.2,0-0.4-0.2-0.5-0.4l-49.3-89.4c-0.2-0.4-0.1-0.8,0.3-1c0.1,0,0.1-0.1,0.2-0.1l81.5-21.5l17-12.1c0.3-0.2,0.7-0.2,0.9,0
		l37.1,33.7c0.3,0.3,0.3,0.7,0.1,1l-13.1,17.5c-0.3,2.1-2.9,21.3-6.8,40.2C315.4,274.1,309.7,274.1,307.8,274.1z M299.5,232.1
		c0.1,0,0.2,0,0.4,0.1c0.3,0.1,0.4,0.4,0.4,0.7c0,0.3-2.2,31.1,4.6,38.3c0.7,0.9,1.8,1.4,3,1.4c2.4,0,7.5-5.2,14.5-39.7
		c4-19.9,6.7-40.1,6.8-40.3c0-0.1,0.1-0.2,0.1-0.4l12.8-17l-36.2-32.9l-16.6,11.9c-0.1,0.1-0.2,0.1-0.2,0.1l-80.7,21.2l48.5,87.8
		l42.3-31.3C299.1,232.1,299.3,232.1,299.5,232.1L299.5,232.1z M288.7,153.7L288.7,153.7z" fill="#241F20"></path><polygon class="st1" points="323.9,118.5 300,141 342,183.5 363.5,162.5 	" fill="#241F20"></polygon><path class="st0" d="M78.2,127.3l48.4-48.9l74.6,73.1c0,0,38.4,1.4,61.6,4.9c13.4,2,18.9,5.8,16,7.5c-14.3,8.1-44.6,9.8-44.6,9.8
		s55.2,57.2,50.3,70.8c-4.9,13.7-81.6,36.2-87.5,32.7s-25.4-79.1-30.3-83.1s-10.8-1-11.2-8.8S78.2,127.3,78.2,127.3z" fill="#FFFFFF"></path><path class="st1" d="M199.1,278.4c-0.9,0.1-1.8-0.1-2.6-0.4c-3.1-1.8-8.8-19.3-17.1-45.8c-5.2-16.7-11.2-35.7-13.3-37.4
		c-1.5-1.1-3.3-1.9-5.2-2.3c-3.1-0.8-6-1.6-6.3-7.1c-0.2-3-20.8-20.8-76.9-57.6c-0.2-0.1-0.3-0.3-0.3-0.6c0-0.2,0-0.5,0.2-0.6
		L126,77.9c0.3-0.3,0.8-0.3,1.1,0l74.4,72.9c3.6,0.1,39.5,1.6,61.3,4.9c10,1.5,16.9,4.2,17.4,6.8c0.1,0.8-0.4,1.7-1.1,2
		c-12.6,7.1-36.8,9.3-43.3,9.8c8.1,8.4,54,57.4,49.4,70.4c-2.6,7.4-23.7,16-36.1,20.5C230.6,272,207.3,278.4,199.1,278.4z
		 M79.3,127.2c10.8,7.1,76.3,50.5,76.8,58.2c0.3,4.4,2.2,4.9,5.2,5.7c2.1,0.4,4.1,1.3,5.8,2.6c2.3,1.8,6.7,15.6,13.8,38.1
		c6,19.3,13.6,43.2,16.4,44.9s27.4-4,51.2-12.7c20.6-7.5,33.4-14.7,35.2-19.6c1.3-3.7-1.6-13.6-23.2-39.8
		c-13-15.8-26.8-30.1-27-30.2c-0.3-0.3-0.2-0.8,0.1-1.1c0.1-0.1,0.3-0.2,0.5-0.2c0.3,0,30.3-1.7,44.3-9.7c0.3-0.2,0.4-0.3,0.4-0.5
		c-0.2-1.1-4.4-3.9-16.1-5.6c-22.8-3.4-61.1-4.9-61.5-4.9c-0.2,0-0.4-0.1-0.5-0.2l-74.1-72.6L79.3,127.2z" fill="#241F20"></path><line class="st2" x1="118.2" y1="132.7" x2="94.3" y2="151.2"></line><path class="st1" d="M94.3,152c-0.2,0-0.5-0.1-0.6-0.3c-0.2-0.3-0.2-0.8,0.1-1l23.9-18.6c0.3-0.3,0.8-0.2,1.1,0.1
		c0.3,0.3,0.2,0.8-0.1,1.1l-23.9,18.5C94.6,151.9,94.4,152,94.3,152z" fill="#241F20"></path><line class="st2" x1="131.9" y1="144.9" x2="111.4" y2="168.3"></line><path class="st1" d="M111.4,169.1c-0.2,0-0.4-0.1-0.5-0.2c-0.3-0.3-0.3-0.7-0.1-1.1l20.5-23.5c0.3-0.3,0.7-0.3,1.1-0.1
		c0.3,0.3,0.3,0.7,0.1,1.1c0,0,0,0,0,0l-20.5,23.4C111.8,169,111.6,169.1,111.4,169.1z" fill="#241F20"></path><line class="st2" x1="150.5" y1="162" x2="135.8" y2="182.5"></line><path class="st1" d="M135.8,183.3c-0.2,0-0.3-0.1-0.4-0.1c-0.3-0.2-0.4-0.7-0.2-1c0,0,0,0,0,0l14.7-20.5c0.3-0.3,0.7-0.4,1.1-0.1
		c0.3,0.2,0.4,0.7,0.2,1L136.4,183C136.3,183.2,136,183.3,135.8,183.3z" fill="#241F20"></path><path class="st3" d="M154.4,316.2c-21.9,15.4-50.4,36.8-50.4,36.8L65,289c0,0,31.2-13.4,57.2-24.9L154.4,316.2z" fill="#61E0FA"></path><path class="st1" d="M104.1,353.8h-0.1c-0.2,0-0.4-0.2-0.5-0.4l-39.1-64c-0.1-0.2-0.1-0.4-0.1-0.6c0.1-0.2,0.2-0.4,0.4-0.5
		c0.3-0.1,31.5-13.5,57.2-24.9c0.3-0.2,0.7,0,0.9,0.3l32.3,52c0.2,0.3,0.1,0.8-0.2,1c-21.7,15.2-50.1,36.6-50.4,36.9
		C104.4,353.7,104.2,353.8,104.1,353.8z M66.1,289.4l38.2,62.5c4.4-3.3,29.4-22,49.2-36l-31.6-50.8
		C98.6,275.4,71.1,287.2,66.1,289.4z" fill="#241F20"></path><path class="st0" d="M264.5,239c1.5-0.6,45.3-20.7,49.2-11.6s-48.1,28.6-50.3,29.3c2.1-0.5,47.8-12,48.8-3.4c1,8.8-66,26.4-66,26.4
		s-36.1,3.4-47.4,8.3s-12.7,11.2-20,12.7c-2.6,0.5-12.5,7.1-24.4,15.4l-32.3-52c15.5-6.8,34.8-19.1,38.7-22
		c9.9-7.5,11.9-14.2,16.8-28.3s6.6-35.6,13.4-41.4c7.2-6.2,8.5,42.4,8.5,42.4s31.1-8.8,40.9-10.3s58.6-32.7,64.5-28.3
		s-50.3,46.9-50.3,46.9s61.1-33.7,66.9-26.4S266.3,238.1,264.5,239z" fill="#FFFFFF"></path><path class="st1" d="M154.4,316.9h-0.1c-0.2,0-0.4-0.2-0.5-0.3l-32.3-52c-0.1-0.2-0.1-0.4-0.1-0.6c0.1-0.2,0.2-0.4,0.4-0.5
		c15.7-6.9,34.9-19.2,38.6-21.9c9.3-7,11.5-13.4,15.9-26.2l0.6-1.8c1.8-5.6,3.2-11.3,4.4-17c2.4-10.7,4.7-20.8,9.2-24.7
		c0.7-0.7,1.7-0.9,2.6-0.5c5.6,2.4,6.9,35.4,7.1,42.5c5.3-1.5,31.2-8.7,40-10c3.9-0.6,14.7-6.3,26.1-12.4
		c21.2-11.3,35.4-18.5,39-15.8c0.5,0.4,0.8,0.9,0.7,1.5c0,6.2-29.3,29.8-43.7,41c6-3.1,14.5-7.5,23.2-11.6
		c32.5-15.3,35.6-11.5,36.6-10.3c0.5,0.7,0.7,1.5,0.5,2.3c-1.6,7.5-30.5,25.4-46.8,34.9c14.8-5.9,30.2-10.9,36.2-8.5
		c1.1,0.4,1.9,1.2,2.4,2.2c0.4,1,0.3,2.1-0.1,3c-3.2,7.3-26.9,17.9-40.9,23.5c3.5-0.8,7.6-1.6,11.8-2.3c14.3-2.5,23.2-2.6,26.4-0.4
		c0.8,0.5,1.3,1.4,1.5,2.3c0.3,2.6-2.8,7.3-33.1,17.3c-16.4,5.4-33.2,9.9-33.4,9.9h-0.1c-0.4,0-36.2,3.5-47.2,8.3
		c-4.2,1.8-8,4.4-11.3,7.5c-2.7,2.4-5,4.5-8.9,5.2c-1.5,0.3-6.8,3.2-24.1,15.3C154.7,316.8,154.6,316.9,154.4,316.9z M123.2,264.5
		l31.4,50.6c13.8-9.7,21.7-14.6,24-15.1c3.5-0.7,5.5-2.5,8.2-4.9c3.4-3.2,7.4-5.9,11.7-7.8c11.1-4.8,45.4-8.1,47.6-8.4
		c25.6-6.7,66-19.6,65.3-25.6c-0.1-0.5-0.4-1-0.8-1.2c-5.5-3.8-32.1,1.5-47,5.3c-0.4,0.1-0.8-0.1-0.9-0.5c-0.1-0.4,0.1-0.8,0.5-0.9
		c15.8-5.9,46.5-18.9,49.7-26.5c0.3-0.6,0.3-1.2,0.1-1.8c-0.3-0.7-0.9-1.2-1.6-1.4c-5.4-2.1-22,2.6-45.6,12.9l-1,0.4
		c-0.4,0.2-0.8,0-1-0.4c0,0,0,0,0,0c-0.2-0.4,0-0.8,0.3-1c3.7-1.9,55-31.1,56.9-40.1c0.1-0.4,0.1-0.8-0.2-1.1
		c-4-5-42.6,13.7-66,26.6c-0.4,0.2-0.8,0.1-1-0.3c-0.2-0.3-0.1-0.8,0.2-1c20.3-15.4,50.5-40.1,50.5-45.4c0-0.1,0-0.2-0.1-0.3
		c-3.1-2.3-22.9,8.2-37.4,15.9c-12,6.4-22.4,11.9-26.6,12.5c-9.6,1.4-40.5,10.1-40.8,10.2c-0.4,0.1-0.8-0.1-0.9-0.5
		c0-0.1,0-0.1,0-0.2c-0.4-15.4-2.5-40.4-6.2-42.1c-0.1,0-0.4-0.2-1,0.3c-4.1,3.6-6.3,13.4-8.7,23.9c-1.2,5.8-2.6,11.5-4.4,17.1
		l-0.6,1.8c-4.5,13-6.7,19.6-16.4,26.9C149.2,251,136.5,258.3,123.2,264.5z" fill="#241F20"></path><polygon class="st3" points="369.4,57.9 312.7,117.5 364,172.7 429.5,120 	" fill="#61E0FA"></polygon><polygon class="st1" points="293,347.5 226.3,361.8 224.9,345.6 288,332.9 	" fill="#241F20"></polygon><polygon class="st0" points="253.9,337.5 253.7,332.6 258.3,332.8 258.7,336.9 	" fill="#FFFFFF"></polygon><path class="st1" d="M253.9,338.3c-0.2,0-0.4-0.1-0.5-0.2c-0.2-0.1-0.3-0.3-0.3-0.5l-0.2-4.9c0-0.2,0.1-0.4,0.2-0.6
		c0.1-0.2,0.4-0.2,0.6-0.2l4.6,0.2c0.4,0,0.7,0.3,0.7,0.7l0.4,4.1c0,0.4-0.3,0.8-0.7,0.8L253.9,338.3L253.9,338.3z M254.5,333.4
		l0.2,3.3l3.2-0.4l-0.2-2.7L254.5,333.4z" fill="#241F20"></path><circle class="st0" cx="257.4" cy="347" r="11.8" fill="#FFFFFF"></circle><path class="st1" d="M257.4,359.6c-6.9,0-12.6-5.6-12.6-12.6c0-6.9,5.6-12.6,12.6-12.6c6.9,0,12.6,5.6,12.6,12.6v0
		C269.9,354,264.3,359.6,257.4,359.6z M257.4,336c-6.1,0-11.1,5-11.1,11.1c0,6.1,5,11.1,11.1,11.1c6.1,0,11.1-5,11.1-11.1v0
		C268.4,340.9,263.5,336,257.4,336L257.4,336z" fill="#241F20"></path></g><g id="Lines"><path class="st4" d="M277.6,124c-0.1,0-0.2,0-0.3-0.1c-0.4-0.2-0.6-0.6-0.4-1c0,0,0,0,0,0l17-40.3c0.1-0.4,0.6-0.6,1-0.4
		c0,0,0,0,0,0c0.4,0.2,0.6,0.6,0.4,1c0,0,0,0,0,0l-17,40.3C278.2,123.8,277.9,124,277.6,124z"></path><path class="st4" d="M250.4,130.6c-0.4,0-0.7-0.3-0.8-0.7l-1.1-93.5c0-0.4,0.3-0.7,0.7-0.8c0.4,0,0.7,0.3,0.8,0.7c0,0,0,0,0,0.1
		l1.1,93.5C251.2,130.2,250.9,130.6,250.4,130.6z"></path><path class="st4" d="M223.9,122.5c-0.3,0-0.5-0.1-0.6-0.3l-18.8-27.8c-0.2-0.3-0.1-0.8,0.2-1c0.3-0.2,0.8-0.1,1,0.2l18.8,27.8
		c0.2,0.3,0.1,0.8-0.2,1C224.2,122.4,224,122.5,223.9,122.5z"></path><path class="st4" d="M355.2,191.6c-0.3,0-0.6-0.2-0.7-0.5c-0.2-0.4,0-0.8,0.4-1c0,0,0,0,0.1,0l29.8-9.8c0.4-0.1,0.8,0.1,1,0.5
		c0.1,0.4-0.1,0.8-0.5,0.9l-29.8,9.8C355.3,191.5,355.3,191.6,355.2,191.6z"></path><path class="st4" d="M447.5,214.5L447.5,214.5l-106.1-7.3c-0.4,0-0.7-0.4-0.7-0.8c0,0,0,0,0,0c0-0.4,0.4-0.7,0.8-0.7l106,7.3
		c0.4,0,0.7,0.4,0.7,0.8C448.2,214.2,447.9,214.5,447.5,214.5z"></path><path class="st4" d="M378.6,230.2c-0.1,0-0.1,0-0.2,0l-24.9-7.3c-0.4-0.1-0.6-0.5-0.5-0.9c0.1-0.4,0.5-0.6,0.9-0.5c0,0,0,0,0,0
		l24.9,7.3c0.4,0.1,0.6,0.5,0.5,0.9C379.3,230,379,230.2,378.6,230.2L378.6,230.2z"></path><path class="st4" d="M365.5,324.5c-0.1,0-0.2,0-0.3,0l-38.1-14.2c-0.4-0.1-0.6-0.6-0.4-1s0.6-0.6,1-0.4l38.1,14.2
		c0.4,0.1,0.6,0.6,0.5,1c0,0,0,0,0,0C366,324.3,365.8,324.5,365.5,324.5z"></path><path class="st4" d="M373.8,369.9c-0.2,0-0.4-0.1-0.5-0.2l-66.9-59.1c-0.3-0.3-0.3-0.7-0.1-1.1c0,0,0,0,0,0
		c0.3-0.3,0.7-0.3,1.1-0.1l66.9,59.1c0.3,0.3,0.4,0.7,0.1,1.1C374.2,369.8,374,369.9,373.8,369.9z"></path><path class="st4" d="M319.5,361.1c-0.3,0-0.5-0.2-0.7-0.4l-15.1-29.3c-0.2-0.4,0-0.8,0.4-1c0.4-0.2,0.8,0,1,0.3l15.2,29.3
		c0.2,0.4,0,0.8-0.3,1C319.8,361.1,319.6,361.1,319.5,361.1z"></path><path class="st4" d="M150.5,396.8c-0.1,0-0.3,0-0.4-0.1c-0.3-0.2-0.4-0.7-0.2-1l38.1-60.1c0.2-0.4,0.7-0.5,1-0.2
		c0.4,0.2,0.5,0.7,0.2,1l-38.1,60.1C151,396.7,150.7,396.8,150.5,396.8z"></path><path class="st4" d="M150.5,343c-0.4,0-0.7-0.3-0.7-0.8c0-0.3,0.2-0.5,0.4-0.7l24.9-12.2c0.4-0.2,0.8,0,1,0.4c0.2,0.4,0,0.8-0.3,1
		c0,0,0,0,0,0L150.8,343C150.7,343,150.6,343,150.5,343z"></path><path class="st4" d="M199.3,382.1L199.3,382.1c-0.5,0-0.8-0.4-0.8-0.8l2.4-29.8c0-0.4,0.4-0.7,0.8-0.7c0,0,0,0,0,0
		c0.4,0,0.7,0.4,0.7,0.8c0,0,0,0,0,0l-2.4,29.8C200,381.8,199.7,382.1,199.3,382.1z"></path><path class="st4" d="M142.2,224.8c-0.1,0-0.2,0-0.3-0.1l-73.3-30.3c-0.4-0.2-0.6-0.6-0.4-1c0,0,0,0,0,0c0.2-0.4,0.6-0.6,1-0.4
		c0,0,0,0,0,0l73.3,30.3c0.4,0.2,0.6,0.6,0.4,1C142.7,224.6,142.5,224.8,142.2,224.8L142.2,224.8z"></path><path class="st4" d="M99.2,239c-0.4,0-0.7-0.3-0.8-0.7c0-0.4,0.3-0.7,0.7-0.8l31.3-0.5c0.4,0,0.8,0.3,0.8,0.7c0,0,0,0,0,0
		c0,0.4-0.3,0.7-0.7,0.8c0,0,0,0,0,0L99.2,239L99.2,239z"></path><path class="st4" d="M145.6,209.2c-0.2,0-0.3-0.1-0.5-0.2L128,195.8c-0.3-0.2-0.4-0.7-0.1-1c0,0,0,0,0,0c0.2-0.3,0.7-0.4,1-0.1
		l17.1,13.2c0.3,0.2,0.4,0.7,0.1,1c0,0,0,0,0,0C146,209,145.8,209.1,145.6,209.2z"></path></g></svg>